<svg xmlns="http://www.w3.org/2000/svg" width="404.91" height="112.14" viewBox="0 0 404.91 112.14"><title>dror_Asset 2</title><g id="Layer_2" data-name="Layer 2"><g id="Layer_1-2" data-name="Layer 1"><g style="isolation:isolate"><path d="M2.44,103.15a.92.92,0,0,1-.68-.25.94.94,0,0,1-.25-.67V89.76a1,1,0,0,1,.25-.68,1,1,0,0,1,.68-.25h.71a.94.94,0,0,1,.67.25.92.92,0,0,1,.25.68v12.47a.86.86,0,0,1-.92.92Z" transform="translate(-1.51 -5.88)" fill="#828282"/><path d="M18.73,110.55a9.29,9.29,0,0,0,4.85-1.1,7.15,7.15,0,0,0,2.94-3.23,11.2,11.2,0,0,0,1-4.83V89.76a.92.92,0,0,1,.25-.68.94.94,0,0,1,.67-.25h.72a.94.94,0,0,1,.67.25.92.92,0,0,1,.25.68v11.93a13.24,13.24,0,0,1-.8,4.76A10,10,0,0,1,27,110.06a9.67,9.67,0,0,1-3.53,2.27,11.64,11.64,0,0,1-4.58.69H16.09a8.73,8.73,0,0,1-7.84-4.72A11.35,11.35,0,0,1,7,102.86V89.76a.88.88,0,0,1,.93-.93h.71a.88.88,0,0,1,.93.93L9.74,103a7.24,7.24,0,0,0,2.12,5.6,7.65,7.65,0,0,0,5.4,2Zm-9.91-5.8-.13-2.39a13.11,13.11,0,0,0,5.46-1,5.52,5.52,0,0,0,2.61-2.52,8,8,0,0,0,.71-3.32V89.76a.86.86,0,0,1,.93-.93h.71a.94.94,0,0,1,.67.25.92.92,0,0,1,.25.68v5.92a9,9,0,0,1-1.17,4.51,8.42,8.42,0,0,1-3.66,3.34A13.7,13.7,0,0,1,8.82,104.75Z" transform="translate(-1.51 -5.88)" fill="#828282"/><path d="M33.68,103.15a.86.86,0,0,1-.92-.92V89.76a.92.92,0,0,1,.25-.68.94.94,0,0,1,.67-.25h.72a.94.94,0,0,1,.67.25.92.92,0,0,1,.25.68v12.47a.86.86,0,0,1-.92.92Z" transform="translate(-1.51 -5.88)" fill="#828282"/><path d="M38.43,112.81a.9.9,0,0,1-.67-.25.88.88,0,0,1-.25-.67v-6.68a17.24,17.24,0,0,1,.35-3.5,9.09,9.09,0,0,1,1.47-3.36,10.33,10.33,0,0,1,3.43-3l1.38,2a8,8,0,0,0-2.6,2.4,7.91,7.91,0,0,0-1.18,2.79,14.62,14.62,0,0,0-.29,2.83v6.47a.86.86,0,0,1-.93.92Zm16.59,0a.82.82,0,0,1-.63-.21l-.42-.41L38.43,90.51a1.64,1.64,0,0,1-.34-.84.82.82,0,0,1,.26-.59.81.81,0,0,1,.58-.25h.8a.92.92,0,0,1,.65.21,3.1,3.1,0,0,1,.4.42l15.54,21.68a1.73,1.73,0,0,1,.27.48.92.92,0,0,1,.07.36.85.85,0,0,1-.84.83Zm-4.7-7.47-1-2.14A9.93,9.93,0,0,0,52.65,101a4.83,4.83,0,0,0,1.17-2.42A17.78,17.78,0,0,0,54,95.81v-6a.86.86,0,0,1,.93-.93h.71a.94.94,0,0,1,.67.25.92.92,0,0,1,.25.68V96a14.06,14.06,0,0,1-.4,3.42,7,7,0,0,1-1.72,3.06A14,14,0,0,1,50.32,105.34Z" transform="translate(-1.51 -5.88)" fill="#828282"/><path d="M83,112.81a.88.88,0,0,1-.93-.92V99.29a8.55,8.55,0,0,0-1.88-5.9Q78.25,91.28,74,91.27H68.88a.86.86,0,0,1-.92-.92v-.59a.92.92,0,0,1,.25-.68.94.94,0,0,1,.67-.25h5.33A12.56,12.56,0,0,1,80.07,90a7.56,7.56,0,0,1,3.4,3.49,12.5,12.5,0,0,1,1.12,5.56v12.81a.88.88,0,0,1-.93.92Z" transform="translate(-1.51 -5.88)" fill="#828282"/><path d="M99.33,110.55a9.29,9.29,0,0,0,4.85-1.1,7.15,7.15,0,0,0,2.94-3.23,11.2,11.2,0,0,0,1-4.83V89.76a.92.92,0,0,1,.25-.68.94.94,0,0,1,.67-.25h.72a1,1,0,0,1,.67.25.92.92,0,0,1,.25.68v11.93a13.46,13.46,0,0,1-.8,4.76,10,10,0,0,1-2.27,3.61,9.63,9.63,0,0,1-3.52,2.27,11.67,11.67,0,0,1-4.58.69H96.68a8.73,8.73,0,0,1-7.83-4.72,11.24,11.24,0,0,1-1.24-5.44V89.76a.86.86,0,0,1,.93-.93h.71a.94.94,0,0,1,.67.25.92.92,0,0,1,.25.68L90.34,103a7.24,7.24,0,0,0,2.12,5.6,7.65,7.65,0,0,0,5.4,2Zm-9.91-5.8-.13-2.39a13.11,13.11,0,0,0,5.46-1,5.52,5.52,0,0,0,2.61-2.52,8,8,0,0,0,.71-3.32V89.76a.92.92,0,0,1,.25-.68.94.94,0,0,1,.67-.25h.72a.94.94,0,0,1,.67.25.92.92,0,0,1,.25.68v5.92a9,9,0,0,1-1.17,4.51,8.47,8.47,0,0,1-3.66,3.34A13.7,13.7,0,0,1,89.42,104.75Z" transform="translate(-1.51 -5.88)" fill="#828282"/><path d="M114.62,112.81a.86.86,0,0,1-.93-.92V89.76a.86.86,0,0,1,.93-.93h.71a.94.94,0,0,1,.67.25.92.92,0,0,1,.25.68v22.13a.88.88,0,0,1-.25.67.9.9,0,0,1-.67.25Z" transform="translate(-1.51 -5.88)" fill="#828282"/><path d="M121,112.81a.88.88,0,0,1-.93-.92v-.59a.9.9,0,0,1,.26-.67.88.88,0,0,1,.67-.25h6q4.24,0,6-2.12a9.53,9.53,0,0,0,2-5.9c0-.65.05-1.16.05-1.56s0-.89-.05-1.51a9.2,9.2,0,0,0-1.95-5.9q-1.83-2.11-6.07-2.12h-6a.88.88,0,0,1-.67-.25.9.9,0,0,1-.26-.67v-.59a.88.88,0,0,1,.93-.93h6.17A12.33,12.33,0,0,1,133,90a7.62,7.62,0,0,1,3.36,3.49,13.51,13.51,0,0,1,1.2,5.56c0,.62,0,1.19,0,1.72s0,1.12,0,1.77a13.6,13.6,0,0,1-1.2,5.54,7.62,7.62,0,0,1-3.36,3.51,12.34,12.34,0,0,1-5.82,1.19Z" transform="translate(-1.51 -5.88)" fill="#828282"/><path d="M152,118a.92.92,0,0,1-.68-.25.94.94,0,0,1-.25-.67V89.76a.86.86,0,0,1,.93-.93h.71a.94.94,0,0,1,.67.25.92.92,0,0,1,.25.68V117.1a.86.86,0,0,1-.92.92Z" transform="translate(-1.51 -5.88)" fill="#828282"/><path d="M157.08,112.81a.71.71,0,0,1-.59-.27.92.92,0,0,1-.17-.69l3.19-21.38a1,1,0,0,1,.38-.63.79.79,0,0,1,.67-.12l.72.12a.83.83,0,0,1,.63.34.78.78,0,0,1,.12.67l-3.15,21a1,1,0,0,1-.35.69,1,1,0,0,1-.7.27Zm9.78-21.54H157.5a.88.88,0,0,1-.67-.25.9.9,0,0,1-.26-.67v-.59a.88.88,0,0,1,.93-.93h9.57a8.2,8.2,0,0,1,4.5,1.26,8.5,8.5,0,0,1,3.08,3.57,12.26,12.26,0,0,1,1.12,5.42v12.81a.86.86,0,0,1-.93.92H164.22a.88.88,0,0,1-.93-.92v-.59a.9.9,0,0,1,.26-.67.88.88,0,0,1,.67-.25h9V99.29a9.87,9.87,0,0,0-.84-4.2,7,7,0,0,0-2.27-2.81A5.42,5.42,0,0,0,166.86,91.27Z" transform="translate(-1.51 -5.88)" fill="#828282"/><path d="M179,112.81a.9.9,0,0,1-.67-.25.88.88,0,0,1-.25-.67v-6.68a17.24,17.24,0,0,1,.35-3.5,9.09,9.09,0,0,1,1.47-3.36,10.33,10.33,0,0,1,3.43-3l1.38,2a8,8,0,0,0-2.6,2.4,7.91,7.91,0,0,0-1.18,2.79,13.88,13.88,0,0,0-.29,2.83v6.47a.86.86,0,0,1-.93.92Zm16.59,0a.82.82,0,0,1-.63-.21l-.42-.41L179,90.51a1.56,1.56,0,0,1-.34-.84.82.82,0,0,1,.26-.59.81.81,0,0,1,.58-.25h.8a.92.92,0,0,1,.65.21,3.1,3.1,0,0,1,.4.42l15.54,21.68a1.73,1.73,0,0,1,.27.48.92.92,0,0,1,.07.36.85.85,0,0,1-.84.83Zm-4.7-7.47-1.06-2.14a9.89,9.89,0,0,0,3.39-2.25,4.83,4.83,0,0,0,1.17-2.42,17.78,17.78,0,0,0,.19-2.72v-6a.86.86,0,0,1,.93-.93h.71a.94.94,0,0,1,.67.25.92.92,0,0,1,.25.68V96a14.06,14.06,0,0,1-.4,3.42A7,7,0,0,1,195,102.5,14,14,0,0,1,190.85,105.34Z" transform="translate(-1.51 -5.88)" fill="#828282"/><path d="M201.13,112.81a.69.69,0,0,1-.58-.27.92.92,0,0,1-.17-.69l3.19-21.38a1,1,0,0,1,.38-.63.78.78,0,0,1,.67-.12l.71.12a.83.83,0,0,1,.63.34.79.79,0,0,1,.13.67l-3.15,21a1,1,0,0,1-.36.69,1,1,0,0,1-.69.27Zm9.79-21.54h-9.37a.86.86,0,0,1-.92-.92v-.59a.92.92,0,0,1,.25-.68.94.94,0,0,1,.67-.25h9.58a8.14,8.14,0,0,1,4.49,1.26,8.45,8.45,0,0,1,3.09,3.57,12.4,12.4,0,0,1,1.11,5.42v12.81a.88.88,0,0,1-.25.67.9.9,0,0,1-.67.25H208.27a.9.9,0,0,1-.67-.25.88.88,0,0,1-.25-.67v-.59a.86.86,0,0,1,.92-.92h9V99.29a9.87,9.87,0,0,0-.84-4.2,6.87,6.87,0,0,0-2.27-2.81A5.41,5.41,0,0,0,210.92,91.27Z" transform="translate(-1.51 -5.88)" fill="#828282"/></g><g style="isolation:isolate"><path d="M108.56,82.53q-8.16,0-12.14-4.39t-4-12.54V44.52a1.49,1.49,0,0,1,.41-1.09A1.47,1.47,0,0,1,93.94,43h16a20.5,20.5,0,0,1,9.25,1.77,10.78,10.78,0,0,1,5.06,5.3,23.57,23.57,0,0,1,1.8,8.84c0,.46.07,1.22.07,2.28v3.17c0,1,0,1.79-.07,2.24a20.61,20.61,0,0,1-1.93,8.8,11.57,11.57,0,0,1-5.61,5.34A23.73,23.73,0,0,1,108.56,82.53Zm0-3.94q7.14,0,10.16-3.1t3.17-9.21c0-.45.06-1.16.06-2.11V61.35c0-.93,0-1.62-.06-2.08-.1-4.08-1.27-7.15-3.54-9.21A12.54,12.54,0,0,0,109.58,47h-13V65.6q0,6.12,2.92,9.55T108.56,78.59Z" transform="translate(-1.51 -5.88)" fill="#3095aa"/><path d="M127.67,81.85a1.41,1.41,0,0,1-1.5-1.5V79.4a1.5,1.5,0,0,1,.41-1.09,1.46,1.46,0,0,1,1.09-.4h18v2.78a1,1,0,0,1-.41.92,2.15,2.15,0,0,1-1.09.24Zm15.7,0a1.27,1.27,0,0,1-1-.41,2.44,2.44,0,0,1-.47-1.09l-1.43-21.08c-.14-2.44-.32-4.59-.54-6.42a8.26,8.26,0,0,0-1.64-4.32Q137,47,133.79,47h-2.52a1.41,1.41,0,0,1-1.5-1.5v-.95a1.41,1.41,0,0,1,1.5-1.5h2.52a11.44,11.44,0,0,1,5.67,1.19,7.44,7.44,0,0,1,3.1,3.37A18,18,0,0,1,144,52.64q.4,2.89.61,6.29L146,80.35a1.07,1.07,0,0,1-.34,1.09,1.75,1.75,0,0,1-1.16.41Z" transform="translate(-1.51 -5.88)" fill="#3095aa"/><path d="M165.54,82.53q-8.91,0-12.68-4.35t-3.78-12.24V44.52a1.41,1.41,0,0,1,1.5-1.5h1.16a1.46,1.46,0,0,1,1.08.41,1.45,1.45,0,0,1,.41,1.09V65.6q0,6.12,3,9.55t9.35,3.44q6.39,0,9.28-3.1t3-9.21a20.79,20.79,0,0,0,0-2.25c0-1,0-2.09,0-3.16V58.59q-.14-6.39-2.82-9.17a9.15,9.15,0,0,0-6.9-2.79,11.11,11.11,0,0,0-2.9.47,10.5,10.5,0,0,0-2.89,1.29,1.22,1.22,0,0,1-1.19.07,1,1,0,0,1-.64-1v-.88a7.13,7.13,0,0,1,.07-1.09,1.17,1.17,0,0,1,.61-.82,14.23,14.23,0,0,1,3.13-1.49,13,13,0,0,1,4.14-.55,14.59,14.59,0,0,1,7.11,1.63,11.12,11.12,0,0,1,4.62,5.07A21.49,21.49,0,0,1,182,58.25c0,.46.06,1.26.06,2.42v3.5c0,1.18,0,2-.06,2.45a22.5,22.5,0,0,1-1.77,8.8,10.87,10.87,0,0,1-5.17,5.34A21.47,21.47,0,0,1,165.54,82.53Z" transform="translate(-1.51 -5.88)" fill="#3095aa"/><path d="M186.89,66.21a1.5,1.5,0,0,1-1.09-.41,1.46,1.46,0,0,1-.4-1.09V44.52a1.48,1.48,0,0,1,.4-1.09,1.5,1.5,0,0,1,1.09-.41h1.16a1.5,1.5,0,0,1,1.09.41,1.48,1.48,0,0,1,.4,1.09V64.71a1.46,1.46,0,0,1-.4,1.09,1.5,1.5,0,0,1-1.09.41Z" transform="translate(-1.51 -5.88)" fill="#3095aa"/><path d="M197.36,47v6.46a15.17,15.17,0,0,0,.65,4.82,3.38,3.38,0,0,0,2.41,2.38l2.79.68a1.33,1.33,0,0,1,.85.72,3,3,0,0,1,.31,1.46v.95a.91.91,0,0,1-.68.92,2.76,2.76,0,0,1-1.43.1l-2.58-.61a7.88,7.88,0,0,1-3.61-1.9A8.24,8.24,0,0,1,194,59.21a21.46,21.46,0,0,1-.68-5.78V44.52a1.41,1.41,0,0,1,1.5-1.5H207A15,15,0,0,1,214.84,45a12.51,12.51,0,0,1,4.9,5.64,23.07,23.07,0,0,1,1.83,9c.05.68.07,1.63.07,2.83s0,2.14-.07,2.82a23.06,23.06,0,0,1-1.83,9,12.46,12.46,0,0,1-4.9,5.68A15,15,0,0,1,207,81.85H195.66a1.46,1.46,0,0,1-1.08-.41,1.43,1.43,0,0,1-.41-1.09V79.4a1.39,1.39,0,0,1,1.49-1.49h11q5.23,0,7.89-3.44t2.92-9.55c.05-.68.07-1.51.07-2.48s0-1.81-.07-2.49q-.13-6.11-2.85-9.55t-8-3.43Z" transform="translate(-1.51 -5.88)" fill="#3095aa"/><path d="M248.77,81.85a1.5,1.5,0,0,1-1.09-.41,1.46,1.46,0,0,1-.4-1.09V60q0-6.11-3.06-9.55T234.29,47H226a1.5,1.5,0,0,1-1.09-.41,1.48,1.48,0,0,1-.4-1.09v-.95a1.48,1.48,0,0,1,.4-1.09A1.5,1.5,0,0,1,226,43h8.64A20.41,20.41,0,0,1,244.11,45a12.28,12.28,0,0,1,5.51,5.64,20.53,20.53,0,0,1,1.8,9V80.35a1.46,1.46,0,0,1-.4,1.09,1.5,1.5,0,0,1-1.09.41Z" transform="translate(-1.51 -5.88)" fill="#c24933"/><path d="M256.66,81.85a1.49,1.49,0,0,1-1.09-.41,1.47,1.47,0,0,1-.41-1.09V44.52a1.41,1.41,0,0,1,1.5-1.5h12.1A20.42,20.42,0,0,1,278.25,45a12.28,12.28,0,0,1,5.51,5.64,20.53,20.53,0,0,1,1.8,9V80.35a1.41,1.41,0,0,1-1.5,1.5h-1.15a1.49,1.49,0,0,1-1.09-.41,1.47,1.47,0,0,1-.41-1.09V60q0-6.11-3.06-9.55T268.42,47h-9.11V80.35a1.43,1.43,0,0,1-.41,1.09,1.46,1.46,0,0,1-1.08.41Z" transform="translate(-1.51 -5.88)" fill="#c24933"/><path d="M307.59,78.18a15.1,15.1,0,0,0,7.86-1.77,11.65,11.65,0,0,0,4.76-5.24,18.23,18.23,0,0,0,1.59-7.82V44.52a1.41,1.41,0,0,1,1.5-1.5h1.16a1.46,1.46,0,0,1,1.08.41,1.45,1.45,0,0,1,.41,1.09V63.83a21.82,21.82,0,0,1-1.29,7.72A16.54,16.54,0,0,1,321,77.4a15.72,15.72,0,0,1-5.71,3.67,19.07,19.07,0,0,1-7.42,1.12h-4.55a14.16,14.16,0,0,1-12.68-7.65,18.23,18.23,0,0,1-2-8.81V44.52a1.49,1.49,0,0,1,.41-1.09,1.47,1.47,0,0,1,1.09-.41h1.15a1.41,1.41,0,0,1,1.5,1.5L293,65.94q0,5.91,3.43,9.08a12.4,12.4,0,0,0,8.74,3.16Zm-16-9.39-.2-3.87q5.78-.14,8.84-1.7a8.82,8.82,0,0,0,4.22-4.08,12.73,12.73,0,0,0,1.15-5.37V44.52a1.49,1.49,0,0,1,.41-1.09,1.47,1.47,0,0,1,1.09-.41h1.15a1.47,1.47,0,0,1,1.09.41,1.49,1.49,0,0,1,.41,1.09v9.59a14.71,14.71,0,0,1-1.9,7.31,13.71,13.71,0,0,1-5.92,5.4A22.22,22.22,0,0,1,291.54,68.79Z" transform="translate(-1.51 -5.88)" fill="#c24933"/></g><g style="isolation:isolate"><path d="M332.66,57.46a.61.61,0,0,1-.43-.17.6.6,0,0,1-.17-.43V43.21a.6.6,0,0,1,.17-.43.61.61,0,0,1,.43-.17h5a8.31,8.31,0,0,1,3.69.72,4.65,4.65,0,0,1,2.17,2.12,7.61,7.61,0,0,1,.72,3.51v7.9a.63.63,0,0,1-.16.43.57.57,0,0,1-.44.17Zm1.64-2.08h7.59V49.09a4.69,4.69,0,0,0-1-3.24,4.3,4.3,0,0,0-3.35-1.16h-3.2Z" transform="translate(-1.51 -5.88)" fill="#828282"/><path d="M347,58.89a.53.53,0,0,1-.49,0,.45.45,0,0,1-.24-.4v-.89a1,1,0,0,1,.11-.44.58.58,0,0,1,.34-.29L352.16,55a6,6,0,0,0,2.29-1.27A4.3,4.3,0,0,0,355.58,52a7.5,7.5,0,0,0,.33-2.27V43.21a.56.56,0,0,1,.17-.43.57.57,0,0,1,.42-.17h1.17a.61.61,0,0,1,.45.17.63.63,0,0,1,.15.43v7.2a6.22,6.22,0,0,1-.67,2.85,7.07,7.07,0,0,1-1.94,2.34,8.83,8.83,0,0,1-3,1.52Zm3.41-2.06L346.7,43.65a1.74,1.74,0,0,0-.09-.31.52.52,0,0,1,0-.21.55.55,0,0,1,.52-.52h1.28A.53.53,0,0,1,349,43l3.62,13.24Z" transform="translate(-1.51 -5.88)" fill="#828282"/><path d="M374.29,57.46a.58.58,0,0,1-.43-.17.6.6,0,0,1-.17-.43V49.09a4.69,4.69,0,0,0-1-3.24,4.3,4.3,0,0,0-3.35-1.16h-3.41a.56.56,0,0,1-.43-.17.58.58,0,0,1-.17-.43v-.88a.58.58,0,0,1,.6-.6h3.54a8.69,8.69,0,0,1,3.7.7,4.71,4.71,0,0,1,2.2,2.12,7.76,7.76,0,0,1,.73,3.53v7.9a.6.6,0,0,1-.17.43.61.61,0,0,1-.43.17Z" transform="translate(-1.51 -5.88)" fill="#828282"/><path d="M379.51,57.46a.61.61,0,0,1-.43-.17.59.59,0,0,1-.16-.43V43.21a.59.59,0,0,1,.16-.43.61.61,0,0,1,.43-.17h5.07a8.43,8.43,0,0,1,3.71.72,4.69,4.69,0,0,1,2.2,2.13,7.79,7.79,0,0,1,.72,3.55v7.85a.56.56,0,0,1-.17.43.57.57,0,0,1-.42.17h-1.17a.6.6,0,0,1-.45-.17.63.63,0,0,1-.15-.43V49.09a4.69,4.69,0,0,0-1-3.24,4.33,4.33,0,0,0-3.36-1.16h-3.17V56.86a.63.63,0,0,1-.15.43.57.57,0,0,1-.42.17Z" transform="translate(-1.51 -5.88)" fill="#828282"/><path d="M394,57.46a.48.48,0,0,1-.39-.18.58.58,0,0,1-.14-.45l2.21-12.74a.71.71,0,0,1,.24-.4.55.55,0,0,1,.44-.09l1,0a.62.62,0,0,1,.42.22.54.54,0,0,1,.1.46l-2.08,12.5a.69.69,0,0,1-.22.45.64.64,0,0,1-.45.18Zm6.57-12.72h-6.32a.58.58,0,0,1-.44-.16.64.64,0,0,1-.15-.43v-.94a.63.63,0,0,1,.15-.43.59.59,0,0,1,.44-.17h6.61a5.42,5.42,0,0,1,2.87.76,5.16,5.16,0,0,1,2,2.17,7.58,7.58,0,0,1,.71,3.42v7.9a.63.63,0,0,1-.15.43.59.59,0,0,1-.44.17h-6.71a.58.58,0,0,1-.43-.17.6.6,0,0,1-.17-.43V56a.58.58,0,0,1,.17-.43.54.54,0,0,1,.43-.17h4.94V49.11a5.38,5.38,0,0,0-.46-2.31,3.51,3.51,0,0,0-1.25-1.52A3.07,3.07,0,0,0,400.57,44.74Z" transform="translate(-1.51 -5.88)" fill="#828282"/></g><g style="isolation:isolate"><path d="M289.8,35.7a.86.86,0,0,1-.92-.92V12.64a.86.86,0,0,1,.92-.92h7.44a12.65,12.65,0,0,1,5.85,1.19,7.63,7.63,0,0,1,3.41,3.49A12.67,12.67,0,0,1,307.61,22V34.78a.9.9,0,0,1-.25.67.91.91,0,0,1-.67.25Zm1.6-2.44h13.65V22.17a8.59,8.59,0,0,0-1.89-5.9c-1.26-1.41-3.31-2.12-6.13-2.12H291.4Z" transform="translate(-1.51 -5.88)" fill="#828282"/><path d="M311.43,26a.86.86,0,0,1-.92-.92V12.64a.86.86,0,0,1,.92-.92h.72a.91.91,0,0,1,.67.25.9.9,0,0,1,.25.67V25.12a.9.9,0,0,1-.25.67.91.91,0,0,1-.67.25Z" transform="translate(-1.51 -5.88)" fill="#828282"/><path d="M320.67,14.15l-4.12,0a1,1,0,0,1-.67-.23.82.82,0,0,1-.25-.65V6.8a.86.86,0,0,1,.92-.92h.72a.86.86,0,0,1,.92.92v4.92h2.61Zm.5,21.89a.86.86,0,0,1-.69,0,.59.59,0,0,1-.31-.58v-1a1,1,0,0,1,.21-.61,1.36,1.36,0,0,1,.67-.44l1.72-.68a14.33,14.33,0,0,0,3.4-1.89,7.58,7.58,0,0,0,2.38-3.08,13,13,0,0,0,.86-5.15,13.21,13.21,0,0,0-.76-4.93A4.75,4.75,0,0,0,326.13,15a11.72,11.72,0,0,0-4.75-.8H320a.88.88,0,0,1-.67-.25.9.9,0,0,1-.26-.67v-.59a.9.9,0,0,1,.26-.67.88.88,0,0,1,.67-.25h1.63a14.87,14.87,0,0,1,6.14,1A6.28,6.28,0,0,1,331,16.25a17.82,17.82,0,0,1,1,6.56,15,15,0,0,1-.76,5.06,10.86,10.86,0,0,1-2,3.57,12,12,0,0,1-2.9,2.39,20.75,20.75,0,0,1-3.34,1.58Z" transform="translate(-1.51 -5.88)" fill="#828282"/><path d="M335.88,26a.86.86,0,0,1-.93-.92V12.64a.86.86,0,0,1,.93-.92h.71a.86.86,0,0,1,.92.92V25.12a.86.86,0,0,1-.92.92Z" transform="translate(-1.51 -5.88)" fill="#828282"/><path d="M341.59,35.7a.92.92,0,0,1-.68-.25.94.94,0,0,1-.25-.67V12.64a.94.94,0,0,1,.25-.67.92.92,0,0,1,.68-.25h7.47a12.69,12.69,0,0,1,5.86,1.19,7.56,7.56,0,0,1,3.4,3.49A12.53,12.53,0,0,1,359.44,22V34.78a.9.9,0,0,1-.26.67.88.88,0,0,1-.67.25h-.71a.88.88,0,0,1-.67-.25.9.9,0,0,1-.25-.67V22.17a8.59,8.59,0,0,0-1.9-5.9q-1.89-2.12-6.13-2.12h-5.63V34.78a.86.86,0,0,1-.92.92Z" transform="translate(-1.51 -5.88)" fill="#828282"/><path d="M368.26,12.47H369a.9.9,0,0,1,.67.26.88.88,0,0,1,.25.67c-.19,1.29-.36,2.44-.5,3.46s-.24,2-.29,3S369,22,369,23.23V34.78a.86.86,0,0,1-.92.92l-4.79-.08a.9.9,0,0,1-.67-.26.88.88,0,0,1-.25-.67V34.1a.86.86,0,0,1,.92-.92l3.15,0V23.44c0-1.27,0-2.41,0-3.43a29.67,29.67,0,0,1,.25-3.09c.14-1,.37-2.22.68-3.56a1.69,1.69,0,0,1,.25-.66A.69.69,0,0,1,368.26,12.47Zm-3.15,1.68a.92.92,0,0,1-.68-.25.94.94,0,0,1-.25-.67v-.59a.94.94,0,0,1,.25-.67.92.92,0,0,1,.68-.25h8.06A12.72,12.72,0,0,1,379,12.91a7.61,7.61,0,0,1,3.4,3.49A12.67,12.67,0,0,1,383.54,22V34.78a.86.86,0,0,1-.92.92h-.71a.92.92,0,0,1-.68-.25.94.94,0,0,1-.25-.67V22.17a8.59,8.59,0,0,0-1.89-5.9q-1.89-2.12-6.13-2.12Z" transform="translate(-1.51 -5.88)" fill="#828282"/><path d="M387.37,35.7a.7.7,0,0,1-.59-.27,1,1,0,0,1-.17-.7l3.19-21.37a1,1,0,0,1,.38-.63.76.76,0,0,1,.67-.13l.72.13a.82.82,0,0,1,.63.33.79.79,0,0,1,.12.67l-3.15,21a1.06,1.06,0,0,1-1.05,1Zm9.78-21.55h-9.36a.92.92,0,0,1-.68-.25.94.94,0,0,1-.25-.67v-.59a.94.94,0,0,1,.25-.67.92.92,0,0,1,.68-.25h9.57a8.2,8.2,0,0,1,4.5,1.26,8.5,8.5,0,0,1,3.08,3.57A12.35,12.35,0,0,1,406.06,22V34.78a.9.9,0,0,1-.26.67.88.88,0,0,1-.67.25H394.51a.92.92,0,0,1-.68-.25.94.94,0,0,1-.25-.67v-.59a.88.88,0,0,1,.93-.93h9V22.17a9.82,9.82,0,0,0-.84-4.19,6.89,6.89,0,0,0-2.26-2.82A5.51,5.51,0,0,0,397.15,14.15Z" transform="translate(-1.51 -5.88)" fill="#828282"/></g></g></g></svg>