<svg xmlns="http://www.w3.org/2000/svg" width="313.98" height="112.14" viewBox="0 0 313.98 112.14"><title>dror_Asset 1</title><g id="Layer_2" data-name="Layer 2"><g id="Layer_1-2" data-name="Layer 1"><g style="isolation:isolate"><path d="M6.56,103.15a.92.92,0,0,1-.68-.25.94.94,0,0,1-.25-.67V89.76a.86.86,0,0,1,.93-.93h.71a.94.94,0,0,1,.67.25.92.92,0,0,1,.25.68v12.47a.86.86,0,0,1-.92.92Z" transform="translate(-5.3 -5.88)" fill="#828282"/><path d="M23.82,110.55a9.29,9.29,0,0,0,4.85-1.1,7.15,7.15,0,0,0,2.94-3.23,11.2,11.2,0,0,0,1-4.83V89.76a.92.92,0,0,1,.25-.68.94.94,0,0,1,.67-.25h.71a.86.86,0,0,1,.93.93v11.93a13.46,13.46,0,0,1-.8,4.76,10,10,0,0,1-2.27,3.61,9.67,9.67,0,0,1-3.53,2.27A11.59,11.59,0,0,1,24,113H21.17a8.73,8.73,0,0,1-7.83-4.72,11.24,11.24,0,0,1-1.24-5.44V89.76a.92.92,0,0,1,.25-.68.94.94,0,0,1,.67-.25h.72a.94.94,0,0,1,.67.25.92.92,0,0,1,.25.68L14.83,103a7.24,7.24,0,0,0,2.12,5.6,7.62,7.62,0,0,0,5.4,2Zm-9.91-5.8-.13-2.39a13.11,13.11,0,0,0,5.46-1,5.45,5.45,0,0,0,2.6-2.52,7.81,7.81,0,0,0,.72-3.32V89.76a.92.92,0,0,1,.25-.68.94.94,0,0,1,.67-.25h.72a1,1,0,0,1,.67.25.92.92,0,0,1,.25.68v5.92a8.94,8.94,0,0,1-1.18,4.51,8.39,8.39,0,0,1-3.65,3.34A13.7,13.7,0,0,1,13.91,104.75Z" transform="translate(-5.3 -5.88)" fill="#828282"/><path d="M39.73,103.15a.86.86,0,0,1-.92-.92V89.76a.92.92,0,0,1,.25-.68.94.94,0,0,1,.67-.25h.72a.94.94,0,0,1,.67.25.92.92,0,0,1,.25.68v12.47a.86.86,0,0,1-.92.92Z" transform="translate(-5.3 -5.88)" fill="#828282"/><path d="M45.45,112.81a.86.86,0,0,1-.93-.92v-6.68a17.26,17.26,0,0,1,.36-3.5,9.09,9.09,0,0,1,1.47-3.36,10.28,10.28,0,0,1,3.42-3l1.39,2a8,8,0,0,0-2.61,2.4,7.88,7.88,0,0,0-1.17,2.79,13.9,13.9,0,0,0-.3,2.83v6.47a.86.86,0,0,1-.92.92Zm16.59,0a.82.82,0,0,1-.63-.21l-.42-.41L45.45,90.51a1.56,1.56,0,0,1-.34-.84.81.81,0,0,1,.25-.59.85.85,0,0,1,.59-.25h.8a.92.92,0,0,1,.65.21,3.87,3.87,0,0,1,.4.42l15.54,21.68a1.73,1.73,0,0,1,.27.48,1.13,1.13,0,0,1,.06.36.77.77,0,0,1-.25.58.79.79,0,0,1-.59.25Zm-4.71-7.47-1-2.14A9.73,9.73,0,0,0,59.66,101a4.85,4.85,0,0,0,1.18-2.42A17.78,17.78,0,0,0,61,95.81v-6a.92.92,0,0,1,.25-.68.94.94,0,0,1,.67-.25h.72a.94.94,0,0,1,.67.25.92.92,0,0,1,.25.68V96a14.06,14.06,0,0,1-.4,3.42,7,7,0,0,1-1.72,3.06A14,14,0,0,1,57.33,105.34Z" transform="translate(-5.3 -5.88)" fill="#828282"/><path d="M93.58,112.81a.88.88,0,0,1-.93-.92V99.29a8.55,8.55,0,0,0-1.89-5.9q-1.89-2.11-6.13-2.12H79.51a.88.88,0,0,1-.67-.25.9.9,0,0,1-.26-.67v-.59a.88.88,0,0,1,.93-.93h5.33A12.59,12.59,0,0,1,90.7,90a7.56,7.56,0,0,1,3.4,3.49,12.5,12.5,0,0,1,1.12,5.56v12.81a.88.88,0,0,1-.93.92Z" transform="translate(-5.3 -5.88)" fill="#828282"/><path d="M110.92,110.55a9.27,9.27,0,0,0,4.85-1.1,7.12,7.12,0,0,0,3-3.23,11.35,11.35,0,0,0,1-4.83V89.76a.86.86,0,0,1,.93-.93h.71a.94.94,0,0,1,.67.25.92.92,0,0,1,.25.68v11.93a13.46,13.46,0,0,1-.79,4.76,10.19,10.19,0,0,1-2.27,3.61,9.67,9.67,0,0,1-3.53,2.27,11.64,11.64,0,0,1-4.58.69h-2.81a8.7,8.7,0,0,1-7.83-4.72,11.24,11.24,0,0,1-1.24-5.44V89.76a.92.92,0,0,1,.25-.68.94.94,0,0,1,.67-.25h.71a.86.86,0,0,1,.93.93l.17,13.23a7.21,7.21,0,0,0,2.12,5.6,7.61,7.61,0,0,0,5.39,2Zm-9.91-5.8-.12-2.39a13.11,13.11,0,0,0,5.46-1,5.49,5.49,0,0,0,2.6-2.52,7.8,7.8,0,0,0,.71-3.32V89.76a.88.88,0,0,1,.93-.93h.71a.88.88,0,0,1,.93.93v5.92a9,9,0,0,1-1.18,4.51,8.39,8.39,0,0,1-3.65,3.34A13.75,13.75,0,0,1,101,104.75Z" transform="translate(-5.3 -5.88)" fill="#828282"/><path d="M127.18,112.81a.88.88,0,0,1-.93-.92V89.76a.88.88,0,0,1,.93-.93h.71a.88.88,0,0,1,.93.93v22.13a.88.88,0,0,1-.93.92Z" transform="translate(-5.3 -5.88)" fill="#828282"/><path d="M134.49,112.81a.86.86,0,0,1-.93-.92v-.59a.94.94,0,0,1,.25-.67.92.92,0,0,1,.68-.25h6c2.83,0,4.84-.71,6.05-2.12a9.53,9.53,0,0,0,2-5.9c0-.65,0-1.16,0-1.56s0-.89,0-1.51a9.2,9.2,0,0,0-1.95-5.9q-1.83-2.11-6.07-2.12h-6a.92.92,0,0,1-.68-.25.94.94,0,0,1-.25-.67v-.59a.86.86,0,0,1,.93-.93h6.17a12.33,12.33,0,0,1,5.82,1.2,7.72,7.72,0,0,1,3.36,3.49A13.35,13.35,0,0,1,151,99.08c0,.62.05,1.19.05,1.72s0,1.12-.05,1.77a13.44,13.44,0,0,1-1.19,5.54,7.72,7.72,0,0,1-3.36,3.51,12.34,12.34,0,0,1-5.82,1.19Z" transform="translate(-5.3 -5.88)" fill="#828282"/><path d="M169.13,118a.86.86,0,0,1-.92-.92V89.76a.92.92,0,0,1,.25-.68.94.94,0,0,1,.67-.25h.72a.94.94,0,0,1,.67.25.92.92,0,0,1,.25.68V117.1a.86.86,0,0,1-.92.92Z" transform="translate(-5.3 -5.88)" fill="#828282"/><path d="M175.18,112.81a.71.71,0,0,1-.59-.27.92.92,0,0,1-.16-.69l3.19-21.38a.93.93,0,0,1,.38-.63.78.78,0,0,1,.67-.12l.71.12a.83.83,0,0,1,.63.34.82.82,0,0,1,.13.67l-3.15,21a1,1,0,0,1-.36.69,1,1,0,0,1-.69.27ZM185,91.27H175.6a.86.86,0,0,1-.92-.92v-.59a.92.92,0,0,1,.25-.68.94.94,0,0,1,.67-.25h9.58a8.14,8.14,0,0,1,4.49,1.26,8.45,8.45,0,0,1,3.09,3.57,12.4,12.4,0,0,1,1.11,5.42v12.81a.88.88,0,0,1-.25.67.9.9,0,0,1-.67.25H182.32a.9.9,0,0,1-.67-.25.88.88,0,0,1-.25-.67v-.59a.86.86,0,0,1,.92-.92h9V99.29a9.87,9.87,0,0,0-.84-4.2,7,7,0,0,0-2.27-2.81A5.41,5.41,0,0,0,185,91.27Z" transform="translate(-5.3 -5.88)" fill="#828282"/><path d="M198,112.81a.9.9,0,0,1-.67-.25.88.88,0,0,1-.25-.67v-6.68a18,18,0,0,1,.35-3.5,9.09,9.09,0,0,1,1.47-3.36,10.33,10.33,0,0,1,3.43-3l1.38,2a8,8,0,0,0-2.6,2.4,7.91,7.91,0,0,0-1.18,2.79,14.62,14.62,0,0,0-.29,2.83v6.47a.86.86,0,0,1-.92.92Zm16.59,0a.82.82,0,0,1-.63-.21l-.42-.41L198,90.51a1.64,1.64,0,0,1-.34-.84.82.82,0,0,1,.26-.59.81.81,0,0,1,.58-.25h.8A.92.92,0,0,1,200,89a3.1,3.1,0,0,1,.4.42l15.54,21.68a2.14,2.14,0,0,1,.28.48,1.13,1.13,0,0,1,.06.36.85.85,0,0,1-.84.83Zm-4.7-7.47-1-2.14a9.93,9.93,0,0,0,3.38-2.25,4.75,4.75,0,0,0,1.17-2.42,17.78,17.78,0,0,0,.19-2.72v-6a.86.86,0,0,1,.93-.93h.71a.94.94,0,0,1,.67.25.92.92,0,0,1,.25.68V96a14.57,14.57,0,0,1-.39,3.42,7,7,0,0,1-1.73,3.06A14,14,0,0,1,209.92,105.34Z" transform="translate(-5.3 -5.88)" fill="#828282"/><path d="M221.17,112.81a.71.71,0,0,1-.59-.27.92.92,0,0,1-.16-.69l3.19-21.38a.93.93,0,0,1,.38-.63.78.78,0,0,1,.67-.12l.71.12a.83.83,0,0,1,.63.34.82.82,0,0,1,.13.67l-3.15,21a1,1,0,0,1-.36.69,1,1,0,0,1-.69.27ZM231,91.27h-9.37a.86.86,0,0,1-.92-.92v-.59a.92.92,0,0,1,.25-.68.94.94,0,0,1,.67-.25h9.58a8.14,8.14,0,0,1,4.49,1.26,8.45,8.45,0,0,1,3.09,3.57,12.4,12.4,0,0,1,1.11,5.42v12.81a.88.88,0,0,1-.25.67.9.9,0,0,1-.67.25H228.31a.9.9,0,0,1-.67-.25.88.88,0,0,1-.25-.67v-.59a.86.86,0,0,1,.92-.92h9V99.29a9.87,9.87,0,0,0-.84-4.2,7,7,0,0,0-2.27-2.81A5.41,5.41,0,0,0,231,91.27Z" transform="translate(-5.3 -5.88)" fill="#828282"/></g><g style="isolation:isolate"><path d="M21.42,82.53q-8.16,0-12.14-4.39T5.3,65.6V44.52A1.41,1.41,0,0,1,6.8,43h16A20.47,20.47,0,0,1,32,44.79a10.78,10.78,0,0,1,5.06,5.3,23.75,23.75,0,0,1,1.81,8.84q.06.69.06,2.28v3.17c0,1,0,1.79-.06,2.24A20.76,20.76,0,0,1,37,75.42a11.49,11.49,0,0,1-5.61,5.34A23.73,23.73,0,0,1,21.42,82.53Zm0-3.94q7.14,0,10.17-3.1t3.16-9.21c0-.45.07-1.16.07-2.11V61.35c0-.93,0-1.62-.07-2.08q-.14-6.12-3.54-9.21A12.54,12.54,0,0,0,22.44,47h-13V65.6q0,6.12,2.93,9.55T21.42,78.59Z" transform="translate(-5.3 -5.88)" fill="#3095aa"/><path d="M40.53,81.85a1.41,1.41,0,0,1-1.5-1.5V79.4a1.5,1.5,0,0,1,.41-1.09,1.46,1.46,0,0,1,1.09-.4h18v2.78a1,1,0,0,1-.41.92,2.15,2.15,0,0,1-1.09.24Zm15.71,0a1.24,1.24,0,0,1-1-.41,2.34,2.34,0,0,1-.48-1.09L53.31,59.27c-.13-2.44-.32-4.59-.54-6.42a8.26,8.26,0,0,0-1.63-4.32c-.87-1-2.36-1.56-4.49-1.56H44.13A1.5,1.5,0,0,1,43,46.56a1.48,1.48,0,0,1-.4-1.09v-.95a1.48,1.48,0,0,1,.4-1.09A1.5,1.5,0,0,1,44.13,43h2.52a11.51,11.51,0,0,1,5.68,1.19,7.47,7.47,0,0,1,3.09,3.37,17.7,17.7,0,0,1,1.43,5.06q.4,2.89.61,6.29l1.43,21.42a1.07,1.07,0,0,1-.34,1.09,1.75,1.75,0,0,1-1.16.41Z" transform="translate(-5.3 -5.88)" fill="#3095aa"/><path d="M78.4,82.53q-8.91,0-12.68-4.35T62,65.94V44.52a1.48,1.48,0,0,1,.4-1.09A1.5,1.5,0,0,1,63.44,43H64.6a1.41,1.41,0,0,1,1.5,1.5V65.6q0,6.12,3,9.55t9.35,3.44q6.39,0,9.29-3.1t3-9.21a20.11,20.11,0,0,0,0-2.25c0-1,0-2.09,0-3.16V58.59q-.13-6.39-2.82-9.17A9.15,9.15,0,0,0,81,46.63a11,11,0,0,0-2.89.47,10.37,10.37,0,0,0-2.89,1.29,1.22,1.22,0,0,1-1.19.07,1,1,0,0,1-.65-1v-.88a7.13,7.13,0,0,1,.07-1.09,1.17,1.17,0,0,1,.61-.82,14.23,14.23,0,0,1,3.13-1.49,13.11,13.11,0,0,1,4.15-.55,14.58,14.58,0,0,1,7.1,1.63,11.09,11.09,0,0,1,4.63,5.07,21.66,21.66,0,0,1,1.8,8.87c0,.46.07,1.26.07,2.42v3.5c0,1.18,0,2-.07,2.45a22.5,22.5,0,0,1-1.77,8.8,10.87,10.87,0,0,1-5.17,5.34A21.44,21.44,0,0,1,78.4,82.53Z" transform="translate(-5.3 -5.88)" fill="#3095aa"/><path d="M99.75,66.21a1.46,1.46,0,0,1-1.08-.41,1.43,1.43,0,0,1-.41-1.09V44.52a1.45,1.45,0,0,1,.41-1.09A1.46,1.46,0,0,1,99.75,43h1.16a1.41,1.41,0,0,1,1.5,1.5V64.71A1.47,1.47,0,0,1,102,65.8a1.49,1.49,0,0,1-1.09.41Z" transform="translate(-5.3 -5.88)" fill="#3095aa"/><path d="M110.23,47v6.46a15.2,15.2,0,0,0,.64,4.82,3.4,3.4,0,0,0,2.42,2.38l2.78.68a1.31,1.31,0,0,1,.85.72,3,3,0,0,1,.31,1.46v.95a.91.91,0,0,1-.68.92,2.76,2.76,0,0,1-1.43.1l-2.58-.61a8,8,0,0,1-3.61-1.9,8.14,8.14,0,0,1-2.1-3.74,21.07,21.07,0,0,1-.68-5.78V44.52a1.48,1.48,0,0,1,.4-1.09,1.5,1.5,0,0,1,1.09-.41h12.17A15,15,0,0,1,127.7,45a12.51,12.51,0,0,1,4.9,5.64,23.07,23.07,0,0,1,1.83,9c0,.68.07,1.63.07,2.83s0,2.14-.07,2.82a23.06,23.06,0,0,1-1.83,9,12.46,12.46,0,0,1-4.9,5.68,15,15,0,0,1-7.89,1.94H108.53a1.41,1.41,0,0,1-1.5-1.5V79.4a1.5,1.5,0,0,1,.41-1.09,1.46,1.46,0,0,1,1.09-.4h10.94q5.23,0,7.89-3.44t2.93-9.55c0-.68.06-1.51.06-2.48s0-1.81-.06-2.49q-.15-6.11-2.86-9.55c-1.81-2.29-4.47-3.43-8-3.43Z" transform="translate(-5.3 -5.88)" fill="#3095aa"/><path d="M161.63,81.85a1.46,1.46,0,0,1-1.08-.41,1.43,1.43,0,0,1-.41-1.09V60q0-6.11-3.06-9.55T147.15,47h-8.3a1.46,1.46,0,0,1-1.08-.41,1.45,1.45,0,0,1-.41-1.09v-.95a1.45,1.45,0,0,1,.41-1.09,1.46,1.46,0,0,1,1.08-.41h8.64A20.48,20.48,0,0,1,157,45a12.26,12.26,0,0,1,5.5,5.64,20.39,20.39,0,0,1,1.81,9V80.35a1.47,1.47,0,0,1-.41,1.09,1.49,1.49,0,0,1-1.09.41Z" transform="translate(-5.3 -5.88)" fill="#c24933"/><path d="M169.52,81.85a1.5,1.5,0,0,1-1.09-.41,1.46,1.46,0,0,1-.4-1.09V44.52a1.48,1.48,0,0,1,.4-1.09,1.5,1.5,0,0,1,1.09-.41h12.11A20.41,20.41,0,0,1,191.11,45a12.28,12.28,0,0,1,5.51,5.64,20.53,20.53,0,0,1,1.8,9V80.35a1.43,1.43,0,0,1-.41,1.09,1.46,1.46,0,0,1-1.08.41h-1.16a1.5,1.5,0,0,1-1.09-.41,1.47,1.47,0,0,1-.41-1.09V60q0-6.11-3.06-9.55T181.29,47h-9.12V80.35a1.46,1.46,0,0,1-.4,1.09,1.49,1.49,0,0,1-1.09.41Z" transform="translate(-5.3 -5.88)" fill="#c24933"/><path d="M220.45,78.18a15.1,15.1,0,0,0,7.86-1.77,11.6,11.6,0,0,0,4.76-5.24,18.23,18.23,0,0,0,1.6-7.82V44.52a1.48,1.48,0,0,1,.4-1.09,1.5,1.5,0,0,1,1.09-.41h1.16a1.5,1.5,0,0,1,1.09.41,1.48,1.48,0,0,1,.4,1.09V63.83a21.82,21.82,0,0,1-1.29,7.72,16.4,16.4,0,0,1-3.67,5.85,15.72,15.72,0,0,1-5.71,3.67,19,19,0,0,1-7.41,1.12h-4.56a14.16,14.16,0,0,1-12.68-7.65,18.23,18.23,0,0,1-2-8.81V44.52a1.49,1.49,0,0,1,.41-1.09A1.47,1.47,0,0,1,203,43h1.15a1.47,1.47,0,0,1,1.09.41,1.49,1.49,0,0,1,.41,1.09l.27,21.42q0,5.91,3.44,9.08a12.38,12.38,0,0,0,8.73,3.16Zm-16-9.39-.21-3.87q5.78-.14,8.84-1.7a8.78,8.78,0,0,0,4.22-4.08,12.73,12.73,0,0,0,1.15-5.37V44.52a1.41,1.41,0,0,1,1.5-1.5h1.16a1.46,1.46,0,0,1,1.08.41,1.45,1.45,0,0,1,.41,1.09v9.59a14.6,14.6,0,0,1-1.9,7.31,13.65,13.65,0,0,1-5.92,5.4A22.17,22.17,0,0,1,204.41,68.79Z" transform="translate(-5.3 -5.88)" fill="#c24933"/></g><g style="isolation:isolate"><path d="M245.52,57.46a.61.61,0,0,1-.43-.17.59.59,0,0,1-.16-.43V43.21a.59.59,0,0,1,.16-.43.61.61,0,0,1,.43-.17h5a8.31,8.31,0,0,1,3.69.72,4.6,4.6,0,0,1,2.17,2.12,7.61,7.61,0,0,1,.72,3.51v7.9a.59.59,0,0,1-.16.43.57.57,0,0,1-.44.17Zm1.64-2.08h7.59V49.09a4.64,4.64,0,0,0-1-3.24,4.3,4.3,0,0,0-3.35-1.16h-3.2Z" transform="translate(-5.3 -5.88)" fill="#828282"/><path d="M259.82,58.89a.53.53,0,0,1-.49,0,.44.44,0,0,1-.23-.4v-.89a1,1,0,0,1,.1-.44.58.58,0,0,1,.34-.29L265,55a5.9,5.9,0,0,0,2.29-1.27A4.2,4.2,0,0,0,268.44,52a7.5,7.5,0,0,0,.33-2.27V43.21a.56.56,0,0,1,.17-.43.58.58,0,0,1,.43-.17h1.17a.59.59,0,0,1,.44.17.63.63,0,0,1,.15.43v7.2a6.22,6.22,0,0,1-.67,2.85,7.07,7.07,0,0,1-1.94,2.34,8.83,8.83,0,0,1-3,1.52Zm3.41-2.06-3.67-13.18a1.74,1.74,0,0,0-.09-.31.78.78,0,0,1,0-.21.5.5,0,0,1,.16-.36.48.48,0,0,1,.36-.16h1.28a.54.54,0,0,1,.6.39l3.61,13.24Z" transform="translate(-5.3 -5.88)" fill="#828282"/><path d="M287.15,57.46a.58.58,0,0,1-.6-.6V49.09a4.64,4.64,0,0,0-1-3.24,4.3,4.3,0,0,0-3.35-1.16h-3.41a.57.57,0,0,1-.43-.17.58.58,0,0,1-.17-.43v-.88a.6.6,0,0,1,.17-.43.61.61,0,0,1,.43-.17h3.54a8.69,8.69,0,0,1,3.7.7,4.71,4.71,0,0,1,2.2,2.12,7.76,7.76,0,0,1,.73,3.53v7.9a.58.58,0,0,1-.6.6Z" transform="translate(-5.3 -5.88)" fill="#828282"/><path d="M292.38,57.46a.58.58,0,0,1-.43-.17.56.56,0,0,1-.17-.43V43.21a.56.56,0,0,1,.17-.43.58.58,0,0,1,.43-.17h5.07a8.38,8.38,0,0,1,3.7.72,4.69,4.69,0,0,1,2.2,2.13,7.79,7.79,0,0,1,.73,3.55v7.85a.6.6,0,0,1-.17.43.61.61,0,0,1-.43.17h-1.17a.57.57,0,0,1-.44-.17.59.59,0,0,1-.16-.43V49.09a4.69,4.69,0,0,0-1-3.24,4.3,4.3,0,0,0-3.35-1.16h-3.18V56.86a.63.63,0,0,1-.15.43.56.56,0,0,1-.42.17Z" transform="translate(-5.3 -5.88)" fill="#828282"/><path d="M306.86,57.46a.48.48,0,0,1-.39-.18.54.54,0,0,1-.13-.45l2.21-12.74a.65.65,0,0,1,.23-.4.55.55,0,0,1,.44-.09l1,0a.58.58,0,0,1,.42.22.54.54,0,0,1,.1.46l-2.08,12.5a.69.69,0,0,1-.67.63Zm6.58-12.72h-6.32a.57.57,0,0,1-.44-.16.6.6,0,0,1-.16-.43v-.94a.59.59,0,0,1,.16-.43.57.57,0,0,1,.44-.17h6.6a5.4,5.4,0,0,1,2.87.76,5.16,5.16,0,0,1,2,2.17,7.45,7.45,0,0,1,.72,3.42v7.9a.63.63,0,0,1-.16.43.57.57,0,0,1-.44.17H312a.58.58,0,0,1-.6-.6V56a.58.58,0,0,1,.17-.43.56.56,0,0,1,.43-.17h4.94V49.11a5.38,5.38,0,0,0-.46-2.31,3.49,3.49,0,0,0-1.24-1.52A3.11,3.11,0,0,0,313.44,44.74Z" transform="translate(-5.3 -5.88)" fill="#828282"/></g><g style="isolation:isolate"><path d="M202.66,35.7a.86.86,0,0,1-.92-.92V12.64a.86.86,0,0,1,.92-.92h7.44A12.72,12.72,0,0,1,216,12.91a7.61,7.61,0,0,1,3.4,3.49A12.67,12.67,0,0,1,220.47,22V34.78a.86.86,0,0,1-.92.92Zm1.6-2.44h13.65V22.17a8.59,8.59,0,0,0-1.89-5.9q-1.89-2.12-6.13-2.12h-5.63Z" transform="translate(-5.3 -5.88)" fill="#828282"/><path d="M224.29,26a.86.86,0,0,1-.92-.92V12.64a.86.86,0,0,1,.92-.92H225a.86.86,0,0,1,.92.92V25.12A.86.86,0,0,1,225,26Z" transform="translate(-5.3 -5.88)" fill="#828282"/><path d="M233.53,14.15l-4.11,0a1,1,0,0,1-.67-.23.83.83,0,0,1-.26-.65V6.8a.9.9,0,0,1,.26-.67.88.88,0,0,1,.67-.25h.71a.86.86,0,0,1,.92.92v4.92h2.61ZM234,36a.89.89,0,0,1-.7,0,.59.59,0,0,1-.31-.58v-1a1,1,0,0,1,.21-.61,1.36,1.36,0,0,1,.67-.44l1.72-.68A14.6,14.6,0,0,0,239,30.74a7.65,7.65,0,0,0,2.37-3.08,13,13,0,0,0,.86-5.15,13,13,0,0,0-.76-4.93A4.75,4.75,0,0,0,239,15a11.7,11.7,0,0,0-4.74-.8h-1.43a.88.88,0,0,1-.93-.92v-.59a.88.88,0,0,1,.93-.92h1.64a14.82,14.82,0,0,1,6.13,1,6.25,6.25,0,0,1,3.25,3.48,17.82,17.82,0,0,1,1,6.56,15.24,15.24,0,0,1-.75,5.06,11.05,11.05,0,0,1-2,3.57,12,12,0,0,1-2.9,2.39,20.75,20.75,0,0,1-3.34,1.58Z" transform="translate(-5.3 -5.88)" fill="#828282"/><path d="M248.74,26a.92.92,0,0,1-.68-.25.94.94,0,0,1-.25-.67V12.64a.94.94,0,0,1,.25-.67.92.92,0,0,1,.68-.25h.71a.88.88,0,0,1,.67.25.9.9,0,0,1,.26.67V25.12a.9.9,0,0,1-.26.67.88.88,0,0,1-.67.25Z" transform="translate(-5.3 -5.88)" fill="#828282"/><path d="M254.45,35.7a.88.88,0,0,1-.93-.92V12.64a.88.88,0,0,1,.93-.92h7.47a12.69,12.69,0,0,1,5.86,1.19,7.63,7.63,0,0,1,3.41,3.49A12.67,12.67,0,0,1,272.3,22V34.78a.94.94,0,0,1-.25.67.91.91,0,0,1-.67.25h-.72a.86.86,0,0,1-.92-.92V22.17a8.59,8.59,0,0,0-1.89-5.9q-1.89-2.12-6.14-2.12h-5.62V34.78a.9.9,0,0,1-.26.67.88.88,0,0,1-.67.25Z" transform="translate(-5.3 -5.88)" fill="#828282"/><path d="M281.12,12.47h.71a.89.89,0,0,1,.93.93c-.2,1.29-.37,2.44-.51,3.46s-.24,2-.29,3-.09,2.1-.09,3.34V34.78a.86.86,0,0,1-.92.92l-4.79-.08a.9.9,0,0,1-.67-.26.88.88,0,0,1-.25-.67V34.1a.86.86,0,0,1,.92-.92l3.15,0V23.44c0-1.27,0-2.41,0-3.43a29.71,29.71,0,0,1,.26-3.09c.14-1,.36-2.22.67-3.56a1.69,1.69,0,0,1,.25-.66A.69.69,0,0,1,281.12,12.47ZM278,14.15a.88.88,0,0,1-.67-.25.9.9,0,0,1-.26-.67v-.59a.9.9,0,0,1,.26-.67.88.88,0,0,1,.67-.25H286a12.69,12.69,0,0,1,5.86,1.19,7.56,7.56,0,0,1,3.4,3.49A12.53,12.53,0,0,1,296.41,22V34.78a.9.9,0,0,1-.26.67.88.88,0,0,1-.67.25h-.71a.88.88,0,0,1-.67-.25.9.9,0,0,1-.26-.67V22.17a8.59,8.59,0,0,0-1.89-5.9q-1.89-2.12-6.13-2.12Z" transform="translate(-5.3 -5.88)" fill="#828282"/><path d="M300.23,35.7a.71.71,0,0,1-.59-.27,1,1,0,0,1-.17-.7l3.19-21.37a1,1,0,0,1,.38-.63.76.76,0,0,1,.67-.13l.72.13a.82.82,0,0,1,.63.33.79.79,0,0,1,.12.67l-3.15,21a1,1,0,0,1-.35.7,1,1,0,0,1-.7.27ZM310,14.15h-9.36a.88.88,0,0,1-.67-.25.9.9,0,0,1-.26-.67v-.59A.9.9,0,0,1,300,12a.88.88,0,0,1,.67-.25h9.57a8.2,8.2,0,0,1,4.5,1.26,8.59,8.59,0,0,1,3.09,3.57A12.35,12.35,0,0,1,318.92,22V34.78a.94.94,0,0,1-.25.67.92.92,0,0,1-.68.25H307.37a.88.88,0,0,1-.67-.25.9.9,0,0,1-.26-.67v-.59a.89.89,0,0,1,.93-.93h9V22.17a9.82,9.82,0,0,0-.84-4.19,6.91,6.91,0,0,0-2.27-2.82A5.49,5.49,0,0,0,310,14.15Z" transform="translate(-5.3 -5.88)" fill="#828282"/></g></g></g></svg>