<svg xmlns="http://www.w3.org/2000/svg" width="472.6" height="44.38" viewBox="0 0 472.6 44.38"><defs><style>.a{isolation:isolate;}.b{fill:#828282;}.c{fill:#3095aa;}.d{fill:#c24933;}</style></defs><title>dror_Asset 1</title><g class="a"><path class="b" d="M3.4,48.14a.86.86,0,0,1-.92-.92V34.74a.86.86,0,0,1,.92-.92h.72a.86.86,0,0,1,.92.92V47.22a.86.86,0,0,1-.92.92Z" transform="translate(-2.48 -18.63)"/><path class="b" d="M20.66,55.53a9.17,9.17,0,0,0,4.85-1.09,7.17,7.17,0,0,0,2.95-3.23,11.35,11.35,0,0,0,1-4.83V34.74a.94.94,0,0,1,.25-.67.92.92,0,0,1,.68-.25h.71a.86.86,0,0,1,.92.92V46.67a13.56,13.56,0,0,1-.79,4.77,10.28,10.28,0,0,1-2.27,3.61,9.8,9.8,0,0,1-3.53,2.27,12,12,0,0,1-4.58.69H18a8.74,8.74,0,0,1-7.83-4.73A11.17,11.17,0,0,1,9,47.85V34.74a.86.86,0,0,1,.92-.92h.71a.92.92,0,0,1,.68.25.94.94,0,0,1,.25.67L11.68,48a7.22,7.22,0,0,0,2.12,5.61,7.65,7.65,0,0,0,5.39,2Zm-9.91-5.8-.12-2.39a12.8,12.8,0,0,0,5.46-1.05,5.4,5.4,0,0,0,2.6-2.52,7.77,7.77,0,0,0,.71-3.32V34.74a.9.9,0,0,1,.26-.67.88.88,0,0,1,.67-.25H21a.88.88,0,0,1,.67.25.9.9,0,0,1,.26.67v5.92a9.07,9.07,0,0,1-1.18,4.52,8.45,8.45,0,0,1-3.65,3.34A13.76,13.76,0,0,1,10.75,49.73Z" transform="translate(-2.48 -18.63)"/><path class="b" d="M36.58,48.14a.86.86,0,0,1-.92-.92V34.74a.86.86,0,0,1,.92-.92h.72a.91.91,0,0,1,.67.25.9.9,0,0,1,.25.67V47.22a.9.9,0,0,1-.25.67.91.91,0,0,1-.67.25Z" transform="translate(-2.48 -18.63)"/><path class="b" d="M42.29,57.8a.86.86,0,0,1-.92-.92V50.2a17.28,17.28,0,0,1,.36-3.51,8.91,8.91,0,0,1,1.47-3.36,10.4,10.4,0,0,1,3.42-3l1.39,2a8,8,0,0,0-2.61,2.39,7.85,7.85,0,0,0-1.17,2.79,14,14,0,0,0-.3,2.84v6.47a.86.86,0,0,1-.92.92Zm16.59,0a.86.86,0,0,1-.63-.21l-.42-.42L42.29,35.5a1.68,1.68,0,0,1-.33-.84.85.85,0,0,1,.84-.84h.8a.94.94,0,0,1,.65.21,5.16,5.16,0,0,1,.4.42L60.19,56.12a2.06,2.06,0,0,1,.27.48,1.23,1.23,0,0,1,.06.36.81.81,0,0,1-.25.59.79.79,0,0,1-.59.25Zm-4.7-7.48-1-2.14a9.83,9.83,0,0,0,3.38-2.25,4.82,4.82,0,0,0,1.18-2.41,19.29,19.29,0,0,0,.19-2.73v-6a.86.86,0,0,1,.92-.92h.71a.92.92,0,0,1,.68.25.94.94,0,0,1,.25.67V41a14.5,14.5,0,0,1-.4,3.42,7.14,7.14,0,0,1-1.72,3.07A14.08,14.08,0,0,1,54.18,50.32Z" transform="translate(-2.48 -18.63)"/><path class="b" d="M87.07,57.8a.92.92,0,0,1-.68-.25.94.94,0,0,1-.25-.67V44.27a8.59,8.59,0,0,0-1.89-5.9q-1.89-2.11-6.13-2.12H73a.91.91,0,0,1-.68-.25.94.94,0,0,1-.25-.67v-.59a.94.94,0,0,1,.25-.67.91.91,0,0,1,.68-.25h5.33A12.72,12.72,0,0,1,84.19,35a7.61,7.61,0,0,1,3.4,3.49,12.67,12.67,0,0,1,1.11,5.56V56.88a.86.86,0,0,1-.92.92Z" transform="translate(-2.48 -18.63)"/><path class="b" d="M104.41,55.53a9.19,9.19,0,0,0,4.85-1.09,7.2,7.2,0,0,0,2.94-3.23,11.2,11.2,0,0,0,1-4.83V34.74a.86.86,0,0,1,.92-.92h.72a.86.86,0,0,1,.92.92V46.67a13.56,13.56,0,0,1-.8,4.77,10.26,10.26,0,0,1-2.26,3.61,9.88,9.88,0,0,1-3.53,2.27,12,12,0,0,1-4.58.69h-2.81a8.76,8.76,0,0,1-7.84-4.73,11.28,11.28,0,0,1-1.24-5.43V34.74a.94.94,0,0,1,.25-.67.92.92,0,0,1,.68-.25h.71a.86.86,0,0,1,.92.92L95.42,48a7.25,7.25,0,0,0,2.12,5.61,7.69,7.69,0,0,0,5.4,2Zm-9.91-5.8-.13-2.39a12.8,12.8,0,0,0,5.46-1.05,5.43,5.43,0,0,0,2.61-2.52,7.92,7.92,0,0,0,.71-3.32V34.74a.86.86,0,0,1,.93-.92h.71a.86.86,0,0,1,.92.92v5.92a9.07,9.07,0,0,1-1.17,4.52,8.53,8.53,0,0,1-3.66,3.34A13.71,13.71,0,0,1,94.5,49.73Z" transform="translate(-2.48 -18.63)"/><path class="b" d="M120.67,57.8a.86.86,0,0,1-.93-.92V34.74a.86.86,0,0,1,.93-.92h.71a.86.86,0,0,1,.92.92V56.88a.86.86,0,0,1-.92.92Z" transform="translate(-2.48 -18.63)"/><path class="b" d="M128,57.8a.86.86,0,0,1-.92-.92v-.59a.88.88,0,0,1,.25-.67.9.9,0,0,1,.67-.26h6c2.82,0,4.84-.7,6-2.12a9.45,9.45,0,0,0,2-5.9c0-.64,0-1.16,0-1.55s0-.9,0-1.52a9.36,9.36,0,0,0-2-5.9c-1.22-1.41-3.25-2.12-6.07-2.12h-6a.86.86,0,0,1-.92-.92v-.59a.86.86,0,0,1,.92-.92h6.18A12.39,12.39,0,0,1,140,35a7.62,7.62,0,0,1,3.36,3.49,13.54,13.54,0,0,1,1.2,5.56c0,.62,0,1.2,0,1.73s0,1.12,0,1.76a13.61,13.61,0,0,1-1.2,5.55A7.6,7.6,0,0,1,140,56.6a12.26,12.26,0,0,1-5.81,1.2Z" transform="translate(-2.48 -18.63)"/><path class="b" d="M159.26,63a.94.94,0,0,1-.67-.25.92.92,0,0,1-.25-.68V34.74a.86.86,0,0,1,.92-.92H160a.86.86,0,0,1,.92.92V62.08a.92.92,0,0,1-.25.68A.94.94,0,0,1,160,63Z" transform="translate(-2.48 -18.63)"/><path class="b" d="M165.31,57.8a.71.71,0,0,1-.59-.27,1,1,0,0,1-.17-.7l3.2-21.37a1,1,0,0,1,.37-.63.81.81,0,0,1,.68-.13l.71.13a.8.8,0,0,1,.76,1l-3.15,21a1.06,1.06,0,0,1-.36.7,1,1,0,0,1-.69.27Zm9.79-21.55h-9.37a.86.86,0,0,1-.92-.92v-.59a.86.86,0,0,1,.92-.92h9.58a8.17,8.17,0,0,1,4.49,1.26,8.59,8.59,0,0,1,3.09,3.57A12.35,12.35,0,0,1,184,44.06V56.88a.9.9,0,0,1-.25.67.91.91,0,0,1-.67.25H172.45a.86.86,0,0,1-.92-.92v-.59a.88.88,0,0,1,.25-.67.9.9,0,0,1,.67-.26h9V44.27a9.82,9.82,0,0,0-.84-4.19,6.91,6.91,0,0,0-2.27-2.82A5.48,5.48,0,0,0,175.1,36.25Z" transform="translate(-2.48 -18.63)"/><path class="b" d="M188.16,57.8a.92.92,0,0,1-.68-.25.94.94,0,0,1-.25-.67V50.2a17.28,17.28,0,0,1,.36-3.51,9.23,9.23,0,0,1,1.47-3.36,10.4,10.4,0,0,1,3.42-3l1.39,2a7.65,7.65,0,0,0-3.78,5.18,14,14,0,0,0-.3,2.84v6.47a.9.9,0,0,1-.25.67.88.88,0,0,1-.67.25Zm16.59,0a.86.86,0,0,1-.63-.21l-.42-.42L188.16,35.5a1.62,1.62,0,0,1-.34-.84.79.79,0,0,1,.25-.59.81.81,0,0,1,.59-.25h.8a.92.92,0,0,1,.65.21,3.87,3.87,0,0,1,.4.42l15.54,21.67a2.06,2.06,0,0,1,.27.48,1.23,1.23,0,0,1,.06.36.81.81,0,0,1-.25.59.79.79,0,0,1-.59.25ZM200,50.32l-1-2.14a9.73,9.73,0,0,0,3.38-2.25,4.82,4.82,0,0,0,1.18-2.41,17.91,17.91,0,0,0,.19-2.73v-6a.86.86,0,0,1,.92-.92h.72a.86.86,0,0,1,.92.92V41a14,14,0,0,1-.4,3.42,7,7,0,0,1-1.72,3.07A14,14,0,0,1,200,50.32Z" transform="translate(-2.48 -18.63)"/><path class="b" d="M211.3,57.8a.71.71,0,0,1-.59-.27,1,1,0,0,1-.17-.7l3.19-21.37a1,1,0,0,1,.38-.63.81.81,0,0,1,.68-.13l.71.13a.82.82,0,0,1,.63.33.79.79,0,0,1,.12.67l-3.15,21a1,1,0,0,1-.35.7,1,1,0,0,1-.69.27Zm9.78-21.55h-9.36a.88.88,0,0,1-.67-.25.9.9,0,0,1-.26-.67v-.59a.9.9,0,0,1,.26-.67.88.88,0,0,1,.67-.25h9.57a8.18,8.18,0,0,1,4.5,1.26,8.59,8.59,0,0,1,3.09,3.57A12.35,12.35,0,0,1,230,44.06V56.88a.94.94,0,0,1-.25.67.92.92,0,0,1-.68.25H218.44a.86.86,0,0,1-.92-.92v-.59a.88.88,0,0,1,.25-.67.9.9,0,0,1,.67-.26h9V44.27a9.82,9.82,0,0,0-.84-4.19,6.91,6.91,0,0,0-2.27-2.82A5.49,5.49,0,0,0,221.08,36.25Z" transform="translate(-2.48 -18.63)"/></g><g class="a"><path class="c" d="M257.69,58.48q-8.16,0-12.14-4.39t-4-12.54V20.47a1.49,1.49,0,0,1,.41-1.09,1.46,1.46,0,0,1,1.08-.41h16a20.44,20.44,0,0,1,9.25,1.77,10.84,10.84,0,0,1,5.07,5.3,24,24,0,0,1,1.8,8.84c0,.46.07,1.22.07,2.28v3.16c0,1,0,1.8-.07,2.25a20.61,20.61,0,0,1-1.94,8.8,11.49,11.49,0,0,1-5.61,5.34A23.68,23.68,0,0,1,257.69,58.48Zm0-3.94q7.14,0,10.16-3.1T271,42.23c.05-.45.07-1.16.07-2.11V37.3c0-.93,0-1.62-.07-2.08q-.13-6.12-3.53-9.21a12.54,12.54,0,0,0-8.77-3.09h-13V41.55q0,6.12,2.92,9.55T257.69,54.54Z" transform="translate(-2.48 -18.63)"/><path class="c" d="M276.79,57.8a1.46,1.46,0,0,1-1.08-.41,1.43,1.43,0,0,1-.41-1.09v-.95a1.39,1.39,0,0,1,1.49-1.49h18v2.78a1,1,0,0,1-.4.92,2.17,2.17,0,0,1-1.09.24Zm15.71,0a1.27,1.27,0,0,1-1-.41A2.33,2.33,0,0,1,291,56.3l-1.43-21.08c-.14-2.44-.32-4.59-.55-6.42a8.17,8.17,0,0,0-1.63-4.32q-1.29-1.56-4.49-1.56H280.4a1.47,1.47,0,0,1-1.09-.41,1.49,1.49,0,0,1-.41-1.09v-1a1.49,1.49,0,0,1,.41-1.09A1.47,1.47,0,0,1,280.4,19h2.51a11.46,11.46,0,0,1,5.68,1.19,7.5,7.5,0,0,1,3.1,3.37,17.7,17.7,0,0,1,1.42,5.06c.28,1.93.48,4,.62,6.29l1.42,21.42a1.05,1.05,0,0,1-.34,1.09,1.7,1.7,0,0,1-1.15.41Z" transform="translate(-2.48 -18.63)"/><path class="c" d="M314.67,58.48q-8.91,0-12.68-4.35t-3.78-12.24V20.47a1.49,1.49,0,0,1,.41-1.09,1.47,1.47,0,0,1,1.09-.41h1.15a1.47,1.47,0,0,1,1.09.41,1.49,1.49,0,0,1,.41,1.09V41.55q0,6.12,3,9.55t9.35,3.44q6.39,0,9.28-3.1c1.93-2.06,2.93-5.13,3-9.21q.06-.67,0-2.25c0-1,0-2.09,0-3.16V34.54q-.15-6.39-2.83-9.18a9.18,9.18,0,0,0-6.9-2.78,11,11,0,0,0-2.89.47,10.5,10.5,0,0,0-2.89,1.29,1.22,1.22,0,0,1-1.19.07,1,1,0,0,1-.64-.95v-.88a8.83,8.83,0,0,1,.06-1.09,1.19,1.19,0,0,1,.62-.82,14.16,14.16,0,0,1,3.12-1.49,13.11,13.11,0,0,1,4.15-.55,14.59,14.59,0,0,1,7.11,1.63,11.12,11.12,0,0,1,4.62,5.07,21.66,21.66,0,0,1,1.8,8.87c.05.46.07,1.26.07,2.42v3.5c0,1.18,0,2-.07,2.45a22.69,22.69,0,0,1-1.76,8.8,10.91,10.91,0,0,1-5.17,5.34A21.47,21.47,0,0,1,314.67,58.48Z" transform="translate(-2.48 -18.63)"/><path class="c" d="M336,42.16a1.49,1.49,0,0,1-1.09-.41,1.47,1.47,0,0,1-.41-1.09V20.47A1.41,1.41,0,0,1,336,19h1.16a1.46,1.46,0,0,1,1.08.41,1.45,1.45,0,0,1,.41,1.09V40.66a1.43,1.43,0,0,1-.41,1.09,1.46,1.46,0,0,1-1.08.41Z" transform="translate(-2.48 -18.63)"/><path class="c" d="M346.49,22.92v6.46a15.17,15.17,0,0,0,.65,4.82,3.38,3.38,0,0,0,2.41,2.38l2.79.68a1.33,1.33,0,0,1,.85.72,3.13,3.13,0,0,1,.31,1.46v1a.91.91,0,0,1-.68.92,2.76,2.76,0,0,1-1.43.1l-2.59-.61a7.89,7.89,0,0,1-3.6-1.9,8.15,8.15,0,0,1-2.11-3.74,21.46,21.46,0,0,1-.68-5.78V20.47a1.49,1.49,0,0,1,.41-1.09,1.47,1.47,0,0,1,1.09-.41h12.17A15,15,0,0,1,364,20.91a12.43,12.43,0,0,1,4.89,5.64,22.89,22.89,0,0,1,1.84,9c0,.68.07,1.63.07,2.83s0,2.14-.07,2.82a22.87,22.87,0,0,1-1.84,9A12.38,12.38,0,0,1,364,55.86a15,15,0,0,1-7.89,1.94H344.79a1.5,1.5,0,0,1-1.09-.41,1.46,1.46,0,0,1-.4-1.09v-.95a1.38,1.38,0,0,1,1.49-1.49h10.95q5.24,0,7.89-3.44t2.92-9.55c.05-.68.07-1.51.07-2.48s0-1.81-.07-2.49q-.14-6.12-2.85-9.55t-8-3.43Z" transform="translate(-2.48 -18.63)"/><path class="d" d="M397.9,57.8a1.49,1.49,0,0,1-1.09-.41,1.47,1.47,0,0,1-.41-1.09V35.9q0-6.12-3.06-9.55t-9.92-3.43h-8.3a1.41,1.41,0,0,1-1.5-1.5v-1a1.41,1.41,0,0,1,1.5-1.5h8.64a20.41,20.41,0,0,1,9.48,1.94,12.28,12.28,0,0,1,5.51,5.64,20.53,20.53,0,0,1,1.8,9V56.3a1.43,1.43,0,0,1-.41,1.09,1.46,1.46,0,0,1-1.08.41Z" transform="translate(-2.48 -18.63)"/><path class="d" d="M405.79,57.8a1.41,1.41,0,0,1-1.5-1.5V20.47a1.49,1.49,0,0,1,.41-1.09,1.47,1.47,0,0,1,1.09-.41h12.1a20.45,20.45,0,0,1,9.49,1.94,12.33,12.33,0,0,1,5.51,5.64,20.53,20.53,0,0,1,1.8,9V56.3a1.47,1.47,0,0,1-.41,1.09,1.49,1.49,0,0,1-1.09.41H432a1.41,1.41,0,0,1-1.5-1.5V35.9q0-6.12-3.06-9.55t-9.93-3.43h-9.11V56.3a1.41,1.41,0,0,1-1.5,1.5Z" transform="translate(-2.48 -18.63)"/><path class="d" d="M456.72,54.13a15.06,15.06,0,0,0,7.85-1.77,11.54,11.54,0,0,0,4.76-5.24,18.09,18.09,0,0,0,1.6-7.82V20.47a1.49,1.49,0,0,1,.41-1.09,1.47,1.47,0,0,1,1.09-.41h1.15a1.47,1.47,0,0,1,1.09.41,1.49,1.49,0,0,1,.41,1.09V39.78a21.82,21.82,0,0,1-1.29,7.72,16.42,16.42,0,0,1-3.68,5.85A15.64,15.64,0,0,1,464.4,57,19,19,0,0,1,457,58.14h-4.55a14.19,14.19,0,0,1-12.69-7.65,18.34,18.34,0,0,1-2-8.81V20.47a1.48,1.48,0,0,1,.4-1.09,1.5,1.5,0,0,1,1.09-.41h1.16a1.5,1.5,0,0,1,1.09.41,1.49,1.49,0,0,1,.41,1.09l.27,21.42q0,5.91,3.43,9.08a12.43,12.43,0,0,0,8.74,3.16Zm-16.05-9.39-.2-3.87q5.77-.13,8.84-1.7a8.75,8.75,0,0,0,4.21-4.08,12.74,12.74,0,0,0,1.16-5.37V20.47a1.45,1.45,0,0,1,.41-1.09,1.46,1.46,0,0,1,1.08-.41h1.16a1.41,1.41,0,0,1,1.5,1.5v9.59a14.61,14.61,0,0,1-1.91,7.31,13.68,13.68,0,0,1-5.91,5.4A22.22,22.22,0,0,1,440.67,44.74Z" transform="translate(-2.48 -18.63)"/></g></svg>