<svg id="Layer_1" data-name="Layer 1" xmlns="http://www.w3.org/2000/svg" width="130.52mm" height="39.87mm" viewBox="0 0 369.98 113.03"><title>shaharFitnessSlogan</title><g style="isolation:isolate"><path d="M113.92,135.53a.88.88,0,0,1-.67-.25.9.9,0,0,1-.26-.67V122.14a.88.88,0,0,1,.93-.93h.71a.88.88,0,0,1,.93.93v12.47a.9.9,0,0,1-.26.67.88.88,0,0,1-.67.25Z" transform="translate(-112.99 -37.37)" fill="#828282"/><path d="M132.94,142.93a9.27,9.27,0,0,0,4.85-1.1,7,7,0,0,0,2.94-3.23,11.2,11.2,0,0,0,1-4.83V122.14a.86.86,0,0,1,.93-.93h.71a.94.94,0,0,1,.67.25.92.92,0,0,1,.25.68v11.92a13.48,13.48,0,0,1-.79,4.77,10.19,10.19,0,0,1-2.27,3.61,9.67,9.67,0,0,1-3.53,2.27,11.64,11.64,0,0,1-4.58.69H130.3a8.73,8.73,0,0,1-7.84-4.72,11.35,11.35,0,0,1-1.23-5.44v-13.1a.92.92,0,0,1,.25-.68.94.94,0,0,1,.67-.25h.71a.86.86,0,0,1,.93.93l.17,13.23a7.21,7.21,0,0,0,2.12,5.6,7.61,7.61,0,0,0,5.39,2Zm-9.91-5.8-.12-2.39a13.11,13.11,0,0,0,5.46-1.05,5.49,5.49,0,0,0,2.6-2.52,7.83,7.83,0,0,0,.71-3.32v-5.71a.88.88,0,0,1,.93-.93h.71a.88.88,0,0,1,.93.93v5.92a9,9,0,0,1-1.18,4.51,8.39,8.39,0,0,1-3.65,3.34A13.75,13.75,0,0,1,123,137.13Z" transform="translate(-112.99 -37.37)" fill="#828282"/><path d="M150.63,135.53a.92.92,0,0,1-.68-.25.94.94,0,0,1-.25-.67V122.14a.86.86,0,0,1,.93-.93h.71a.94.94,0,0,1,.67.25.92.92,0,0,1,.25.68v12.47a.86.86,0,0,1-.92.92Z" transform="translate(-112.99 -37.37)" fill="#828282"/><path d="M158.1,145.19a.86.86,0,0,1-.92-.92v-6.68a18.16,18.16,0,0,1,.35-3.51,9.12,9.12,0,0,1,1.47-3.35,10.56,10.56,0,0,1,3.43-3l1.38,2A7.72,7.72,0,0,0,160,135a14.62,14.62,0,0,0-.29,2.83v6.47a.9.9,0,0,1-.25.67.91.91,0,0,1-.67.25Zm16.59,0a.82.82,0,0,1-.63-.21l-.42-.42L158.1,122.89a1.61,1.61,0,0,1-.33-.84.81.81,0,0,1,.25-.59.83.83,0,0,1,.58-.25h.8a.92.92,0,0,1,.65.21,3.1,3.1,0,0,1,.4.42L176,143.51a2.41,2.41,0,0,1,.28.49,1.12,1.12,0,0,1,.06.35.79.79,0,0,1-.25.59.81.81,0,0,1-.59.25Zm-4.7-7.47-1.05-2.14a9.93,9.93,0,0,0,3.38-2.25,4.75,4.75,0,0,0,1.17-2.42,17.82,17.82,0,0,0,.19-2.73v-6a.88.88,0,0,1,.93-.93h.71a.88.88,0,0,1,.93.93v6.25a14.59,14.59,0,0,1-.4,3.43,7,7,0,0,1-1.73,3.06A14,14,0,0,1,170,137.72Z" transform="translate(-112.99 -37.37)" fill="#828282"/><path d="M204.72,145.19a.86.86,0,0,1-.92-.92v-12.6a8.55,8.55,0,0,0-1.89-5.9q-1.89-2.11-6.14-2.12h-5.12a.94.94,0,0,1-.67-.25.92.92,0,0,1-.25-.68v-.58a.92.92,0,0,1,.25-.68.94.94,0,0,1,.67-.25H196a12.56,12.56,0,0,1,5.86,1.2,7.63,7.63,0,0,1,3.41,3.49,12.64,12.64,0,0,1,1.11,5.56v12.81a.94.94,0,0,1-.25.67.91.91,0,0,1-.67.25Z" transform="translate(-112.99 -37.37)" fill="#828282"/><path d="M223.83,142.93a9.29,9.29,0,0,0,4.85-1.1,7.15,7.15,0,0,0,2.94-3.23,11.2,11.2,0,0,0,1-4.83V122.14a.92.92,0,0,1,.25-.68.94.94,0,0,1,.67-.25h.72a.94.94,0,0,1,.67.25.92.92,0,0,1,.25.68v11.92a13.48,13.48,0,0,1-.8,4.77,10,10,0,0,1-2.27,3.61,9.63,9.63,0,0,1-3.52,2.27,11.67,11.67,0,0,1-4.58.69h-2.81a8.73,8.73,0,0,1-7.84-4.72,11.35,11.35,0,0,1-1.24-5.44v-13.1a.86.86,0,0,1,.93-.93h.71a.94.94,0,0,1,.67.25.92.92,0,0,1,.25.68l.17,13.23A7.24,7.24,0,0,0,217,141a7.65,7.65,0,0,0,5.4,2Zm-9.91-5.8-.13-2.39a13.11,13.11,0,0,0,5.46-1.05,5.52,5.52,0,0,0,2.61-2.52,8,8,0,0,0,.71-3.32v-5.71a.92.92,0,0,1,.25-.68,1,1,0,0,1,.68-.25h.71a.94.94,0,0,1,.67.25.92.92,0,0,1,.25.68v5.92a9,9,0,0,1-1.17,4.51,8.47,8.47,0,0,1-3.66,3.34A13.7,13.7,0,0,1,213.92,137.13Z" transform="translate(-112.99 -37.37)" fill="#828282"/><path d="M241.85,145.19a.88.88,0,0,1-.67-.25.9.9,0,0,1-.26-.67V122.14a.88.88,0,0,1,.93-.93h.71a.88.88,0,0,1,.93.93v22.13a.9.9,0,0,1-.26.67.88.88,0,0,1-.67.25Z" transform="translate(-112.99 -37.37)" fill="#828282"/><path d="M250.92,145.19a.86.86,0,0,1-.92-.92v-.59a.86.86,0,0,1,.92-.92h6q4.25,0,6.05-2.12a9.53,9.53,0,0,0,2-5.9c0-.65,0-1.16,0-1.56s0-.89,0-1.51a9.26,9.26,0,0,0-2-5.9c-1.21-1.41-3.24-2.12-6.07-2.12h-6a.94.94,0,0,1-.67-.25.92.92,0,0,1-.25-.68v-.58a.92.92,0,0,1,.25-.68.94.94,0,0,1,.67-.25h6.17a12.33,12.33,0,0,1,5.82,1.2,7.62,7.62,0,0,1,3.36,3.49,13.51,13.51,0,0,1,1.2,5.56c0,.62,0,1.19,0,1.72s0,1.12,0,1.77a13.6,13.6,0,0,1-1.2,5.54,7.62,7.62,0,0,1-3.36,3.51,12.46,12.46,0,0,1-5.82,1.19Z" transform="translate(-112.99 -37.37)" fill="#828282"/><path d="M284.06,150.4a.88.88,0,0,1-.67-.25.9.9,0,0,1-.26-.67V122.14a.88.88,0,0,1,.93-.93h.71a.88.88,0,0,1,.93.93v27.34a.9.9,0,0,1-.26.67.88.88,0,0,1-.67.25Z" transform="translate(-112.99 -37.37)" fill="#828282"/><path d="M291.87,145.19a.71.71,0,0,1-.59-.27.92.92,0,0,1-.17-.69l3.19-21.38a1,1,0,0,1,.38-.63.84.84,0,0,1,.68-.13l.71.13a.83.83,0,0,1,.63.34.82.82,0,0,1,.13.67l-3.16,21a1,1,0,0,1-.35.69,1,1,0,0,1-.69.27Zm9.79-21.54h-9.37a.94.94,0,0,1-.67-.25.92.92,0,0,1-.25-.68v-.58a.92.92,0,0,1,.25-.68.94.94,0,0,1,.67-.25h9.58a8.19,8.19,0,0,1,4.49,1.26,8.59,8.59,0,0,1,3.09,3.57,12.4,12.4,0,0,1,1.11,5.42v12.81a.94.94,0,0,1-.25.67.91.91,0,0,1-.68.25H299a.88.88,0,0,1-.67-.25.9.9,0,0,1-.26-.67v-.59a.9.9,0,0,1,.26-.67.88.88,0,0,1,.67-.25h9V131.67a9.84,9.84,0,0,0-.84-4.2,7,7,0,0,0-2.27-2.81A5.41,5.41,0,0,0,301.66,123.65Z" transform="translate(-112.99 -37.37)" fill="#828282"/><path d="M316.48,145.19a.86.86,0,0,1-.92-.92v-6.68a18.16,18.16,0,0,1,.35-3.51,9.12,9.12,0,0,1,1.47-3.35,10.56,10.56,0,0,1,3.43-3l1.38,2a7.72,7.72,0,0,0-3.78,5.19,14.62,14.62,0,0,0-.29,2.83v6.47a.9.9,0,0,1-.25.67.91.91,0,0,1-.67.25Zm16.59,0a.82.82,0,0,1-.63-.21l-.42-.42-15.54-21.67a1.61,1.61,0,0,1-.33-.84.81.81,0,0,1,.25-.59.83.83,0,0,1,.59-.25h.79a.92.92,0,0,1,.65.21,3.1,3.1,0,0,1,.4.42l15.54,21.67a2.41,2.41,0,0,1,.28.49,1.12,1.12,0,0,1,.06.35.79.79,0,0,1-.25.59.81.81,0,0,1-.59.25Zm-4.7-7.47-1.05-2.14a9.93,9.93,0,0,0,3.38-2.25,4.75,4.75,0,0,0,1.17-2.42,17.82,17.82,0,0,0,.19-2.73v-6a.88.88,0,0,1,.93-.93h.71a.88.88,0,0,1,.93.93v6.25a14.59,14.59,0,0,1-.4,3.43,7,7,0,0,1-1.73,3.06A14,14,0,0,1,328.37,137.72Z" transform="translate(-112.99 -37.37)" fill="#828282"/><path d="M339.71,145.19a.71.71,0,0,1-.59-.27.92.92,0,0,1-.17-.69l3.19-21.38a1,1,0,0,1,.38-.63.83.83,0,0,1,.67-.13l.72.13a.83.83,0,0,1,.63.34.78.78,0,0,1,.12.67l-3.15,21a1,1,0,0,1-.35.69,1.06,1.06,0,0,1-.7.27Zm9.78-21.54h-9.36a.88.88,0,0,1-.93-.93v-.58a.88.88,0,0,1,.93-.93h9.57a8.2,8.2,0,0,1,4.5,1.26,8.5,8.5,0,0,1,3.08,3.57,12.26,12.26,0,0,1,1.12,5.42v12.81a.9.9,0,0,1-.26.67.88.88,0,0,1-.67.25H346.85a.92.92,0,0,1-.68-.25.94.94,0,0,1-.25-.67v-.59a.94.94,0,0,1,.25-.67.92.92,0,0,1,.68-.25h9V131.67a10,10,0,0,0-.83-4.2,7,7,0,0,0-2.27-2.81A5.44,5.44,0,0,0,349.49,123.65Z" transform="translate(-112.99 -37.37)" fill="#828282"/></g><g style="isolation:isolate"><path d="M130.29,113.87q-8.16,0-12.14-4.38t-4-12.55V75.86a1.5,1.5,0,0,1,.4-1.09,1.48,1.48,0,0,1,1.09-.4h16a20.62,20.62,0,0,1,9.25,1.76A10.82,10.82,0,0,1,146,81.44a23.92,23.92,0,0,1,1.8,8.84q.06.68.06,2.28v3.16c0,1,0,1.79-.06,2.24a20.66,20.66,0,0,1-1.94,8.81,11.49,11.49,0,0,1-5.61,5.34A23.9,23.9,0,0,1,130.29,113.87Zm0-3.94q7.14,0,10.17-3.09t3.16-9.22c0-.45.07-1.15.07-2.11V92.69c0-.93,0-1.62-.07-2.07q-.13-6.12-3.54-9.22a12.52,12.52,0,0,0-8.77-3.09h-13V96.94q0,6.12,2.93,9.56T130.29,109.93Z" transform="translate(-112.99 -37.37)" fill="#3095aa"/><path d="M151.58,113.19a1.46,1.46,0,0,1-1.09-.4,1.5,1.5,0,0,1-.41-1.09v-1a1.41,1.41,0,0,1,1.5-1.5h18V112a1,1,0,0,1-.41.92,2.15,2.15,0,0,1-1.09.23Zm15.7,0a1.26,1.26,0,0,1-1-.4,2.54,2.54,0,0,1-.47-1.09l-1.43-21.08q-.21-3.68-.54-6.43a8.33,8.33,0,0,0-1.64-4.32q-1.29-1.56-4.48-1.56h-2.52a1.49,1.49,0,0,1-1.09-.41,1.47,1.47,0,0,1-.41-1.09v-1a1.5,1.5,0,0,1,.41-1.09,1.48,1.48,0,0,1,1.09-.4h2.52a11.33,11.33,0,0,1,5.67,1.19,7.37,7.37,0,0,1,3.1,3.36A18,18,0,0,1,167.9,84c.27,1.93.47,4,.61,6.29l1.43,21.42a1.09,1.09,0,0,1-.34,1.09,1.74,1.74,0,0,1-1.16.4Z" transform="translate(-112.99 -37.37)" fill="#3095aa"/><path d="M190.81,113.87q-8.91,0-12.68-4.35t-3.78-12.24V75.86a1.5,1.5,0,0,1,.41-1.09,1.48,1.48,0,0,1,1.09-.4H177a1.39,1.39,0,0,1,1.49,1.49V96.94q0,6.12,3,9.56t9.35,3.43q6.39,0,9.28-3.09t3-9.22c0-.45,0-1.2,0-2.24s0-2.1,0-3.16V89.94q-.13-6.39-2.82-9.18A9.19,9.19,0,0,0,193.39,78a10.7,10.7,0,0,0-2.89.48,9.94,9.94,0,0,0-2.89,1.29,1.22,1.22,0,0,1-1.19.07,1,1,0,0,1-.64-1V78a7.13,7.13,0,0,1,.07-1.09,1.16,1.16,0,0,1,.61-.81,13.83,13.83,0,0,1,3.13-1.5,13.37,13.37,0,0,1,4.14-.54,14.48,14.48,0,0,1,7.11,1.63,11.15,11.15,0,0,1,4.62,5.06,21.83,21.83,0,0,1,1.81,8.88c0,.45.06,1.26.06,2.41v3.5c0,1.18,0,2-.06,2.45a22.73,22.73,0,0,1-1.77,8.81,10.87,10.87,0,0,1-5.17,5.34A21.62,21.62,0,0,1,190.81,113.87Z" transform="translate(-112.99 -37.37)" fill="#3095aa"/><path d="M213.52,97.55A1.38,1.38,0,0,1,212,96.06V75.86a1.38,1.38,0,0,1,1.49-1.49h1.16a1.38,1.38,0,0,1,1.49,1.49v20.2a1.38,1.38,0,0,1-1.49,1.49Z" transform="translate(-112.99 -37.37)" fill="#3095aa"/><path d="M226.71,78.31v6.46a15.28,15.28,0,0,0,.65,4.83A3.4,3.4,0,0,0,229.77,92l2.79.68a1.32,1.32,0,0,1,.85.71,3.06,3.06,0,0,1,.31,1.46v1a.9.9,0,0,1-.68.91,2.76,2.76,0,0,1-1.43.11L229,96.19a7.79,7.79,0,0,1-3.61-1.9,8.19,8.19,0,0,1-2.11-3.74,21.41,21.41,0,0,1-.68-5.78V75.86a1.5,1.5,0,0,1,.41-1.09,1.48,1.48,0,0,1,1.09-.4H236.3a15,15,0,0,1,7.89,1.93,12.59,12.59,0,0,1,4.9,5.65,23,23,0,0,1,1.83,9c.05.68.07,1.62.07,2.82s0,2.14-.07,2.82a23.11,23.11,0,0,1-1.83,9,12.56,12.56,0,0,1-4.9,5.68,15,15,0,0,1-7.89,1.93H225a1.39,1.39,0,0,1-1.49-1.49v-1a1.43,1.43,0,0,1,.41-1.09,1.46,1.46,0,0,1,1.08-.41h11q5.23,0,7.89-3.43t2.92-9.56c0-.68.07-1.5.07-2.48s0-1.8-.07-2.48q-.14-6.12-2.85-9.56c-1.82-2.28-4.47-3.43-8-3.43Z" transform="translate(-112.99 -37.37)" fill="#3095aa"/></g><g style="isolation:isolate"><path d="M277.57,113.19a1.46,1.46,0,0,1-1.09-.4,1.5,1.5,0,0,1-.41-1.09V91.3q0-6.12-3.06-9.56t-9.93-3.43h-8.29a1.41,1.41,0,0,1-1.5-1.5v-1a1.5,1.5,0,0,1,.41-1.09,1.46,1.46,0,0,1,1.09-.4h8.63a20.46,20.46,0,0,1,9.49,1.93A12.4,12.4,0,0,1,278.42,82a20.47,20.47,0,0,1,1.8,9V111.7a1.5,1.5,0,0,1-.41,1.09,1.48,1.48,0,0,1-1.09.4Z" transform="translate(-112.99 -37.37)" fill="#c24933"/><path d="M288.17,113.19a1.38,1.38,0,0,1-1.49-1.49V75.86a1.38,1.38,0,0,1,1.49-1.49h12.11a20.41,20.41,0,0,1,9.48,1.93A12.35,12.35,0,0,1,315.27,82a20.47,20.47,0,0,1,1.8,9V111.7a1.38,1.38,0,0,1-1.49,1.49h-1.16a1.4,1.4,0,0,1-1.5-1.49V91.3q0-6.12-3.05-9.56t-9.93-3.43h-9.11V111.7a1.5,1.5,0,0,1-.41,1.09,1.48,1.48,0,0,1-1.09.4Z" transform="translate(-112.99 -37.37)" fill="#c24933"/><path d="M341.83,109.52a14.89,14.89,0,0,0,7.85-1.77,11.57,11.57,0,0,0,4.76-5.23A18.27,18.27,0,0,0,356,94.7V75.86a1.39,1.39,0,0,1,1.49-1.49h1.16a1.38,1.38,0,0,1,1.49,1.49V95.17a21.82,21.82,0,0,1-1.29,7.72,16.4,16.4,0,0,1-3.67,5.85,15.72,15.72,0,0,1-5.71,3.67,18.81,18.81,0,0,1-7.41,1.12h-4.56a14.16,14.16,0,0,1-12.68-7.65,18.19,18.19,0,0,1-2-8.8V75.86a1.5,1.5,0,0,1,.41-1.09,1.48,1.48,0,0,1,1.09-.4h1.15a1.4,1.4,0,0,1,1.5,1.49l.27,21.42q0,5.93,3.44,9.08a12.39,12.39,0,0,0,8.74,3.16Zm-16.05-9.38-.21-3.88c3.86-.09,6.8-.65,8.84-1.7a8.78,8.78,0,0,0,4.22-4.08,12.71,12.71,0,0,0,1.16-5.37V75.86a1.5,1.5,0,0,1,.4-1.09,1.48,1.48,0,0,1,1.09-.4h1.16a1.38,1.38,0,0,1,1.49,1.49v9.59a14.58,14.58,0,0,1-1.9,7.31,13.67,13.67,0,0,1-5.92,5.41A22.3,22.3,0,0,1,325.78,100.14Z" transform="translate(-112.99 -37.37)" fill="#c24933"/></g><g style="isolation:isolate"><path d="M366.73,89.19a.55.55,0,0,1-.59-.59V75a.57.57,0,0,1,.16-.43.61.61,0,0,1,.43-.17h5a8.45,8.45,0,0,1,3.69.71,4.7,4.7,0,0,1,2.17,2.12,7.67,7.67,0,0,1,.72,3.51V88.6a.6.6,0,0,1-.16.43.57.57,0,0,1-.44.16Zm1.64-2.08H376V80.82a4.67,4.67,0,0,0-1-3.24,4.3,4.3,0,0,0-3.35-1.15h-3.2Z" transform="translate(-112.99 -37.37)" fill="#828282"/><path d="M382,90.62a.5.5,0,0,1-.49,0,.43.43,0,0,1-.24-.4V89.3a1,1,0,0,1,.11-.44.55.55,0,0,1,.34-.29l5.48-1.79a6,6,0,0,0,2.29-1.28,4.24,4.24,0,0,0,1.13-1.82,7.39,7.39,0,0,0,.33-2.26V75a.57.57,0,0,1,.16-.43.61.61,0,0,1,.43-.17h1.17a.55.55,0,0,1,.6.6v7.2a6.28,6.28,0,0,1-.67,2.85,6.94,6.94,0,0,1-1.94,2.33,8.85,8.85,0,0,1-3,1.53Zm3.41-2.05-3.67-13.18a1.74,1.74,0,0,0-.09-.31.52.52,0,0,1,0-.21.5.5,0,0,1,.16-.37.49.49,0,0,1,.36-.15h1.28a.53.53,0,0,1,.59.39L387.64,88Z" transform="translate(-112.99 -37.37)" fill="#828282"/><path d="M411.32,89.19a.55.55,0,0,1-.59-.59V80.82a4.72,4.72,0,0,0-1-3.24,4.34,4.34,0,0,0-3.36-1.15h-3.4a.58.58,0,0,1-.43-.17.56.56,0,0,1-.17-.43V75a.54.54,0,0,1,.17-.43.58.58,0,0,1,.43-.17h3.53a8.59,8.59,0,0,1,3.71.7,4.6,4.6,0,0,1,2.19,2.12,7.58,7.58,0,0,1,.73,3.52V88.6a.57.57,0,0,1-.6.59Z" transform="translate(-112.99 -37.37)" fill="#828282"/><path d="M417.54,89.19a.57.57,0,0,1-.43-.16.61.61,0,0,1-.17-.43V75a.58.58,0,0,1,.6-.6h5.07a8.53,8.53,0,0,1,3.7.71,4.75,4.75,0,0,1,2.2,2.14,7.74,7.74,0,0,1,.73,3.54V88.6a.61.61,0,0,1-.17.43.59.59,0,0,1-.43.16h-1.17A.57.57,0,0,1,427,89a.6.6,0,0,1-.16-.43V80.82a4.72,4.72,0,0,0-1-3.24,4.3,4.3,0,0,0-3.35-1.15h-3.17V88.6a.65.65,0,0,1-.16.43.55.55,0,0,1-.42.16Z" transform="translate(-112.99 -37.37)" fill="#828282"/><path d="M433,89.19a.48.48,0,0,1-.39-.18.53.53,0,0,1-.13-.44l2.21-12.74a.62.62,0,0,1,.23-.4.48.48,0,0,1,.44-.09l1,0a.6.6,0,0,1,.42.22.51.51,0,0,1,.1.45l-2.08,12.51a.69.69,0,0,1-.22.44.64.64,0,0,1-.45.18Zm6.57-12.71h-6.31a.57.57,0,0,1-.6-.6V75a.57.57,0,0,1,.6-.6h6.6a5.49,5.49,0,0,1,2.87.75,5.28,5.28,0,0,1,2,2.17,7.51,7.51,0,0,1,.71,3.42V88.6a.64.64,0,0,1-.15.43.58.58,0,0,1-.44.16h-6.71a.59.59,0,0,1-.43-.16.61.61,0,0,1-.17-.43v-.89a.61.61,0,0,1,.17-.43.6.6,0,0,1,.43-.17h4.94V80.85a5.4,5.4,0,0,0-.46-2.32A3.69,3.69,0,0,0,441.37,77,3.19,3.19,0,0,0,439.58,76.48Z" transform="translate(-112.99 -37.37)" fill="#828282"/></g><g style="isolation:isolate"><path d="M359.92,67.19a.88.88,0,0,1-.67-.25.9.9,0,0,1-.26-.67V44.14a.88.88,0,0,1,.93-.93h7.43a12.59,12.59,0,0,1,5.86,1.2,7.56,7.56,0,0,1,3.4,3.49,12.64,12.64,0,0,1,1.11,5.56V66.27a.86.86,0,0,1-.92.92Zm1.59-2.43h13.65V53.67a8.55,8.55,0,0,0-1.89-5.9q-1.89-2.12-6.13-2.12h-5.63Z" transform="translate(-112.99 -37.37)" fill="#828282"/><path d="M383.1,57.53a.86.86,0,0,1-.92-.92V44.14a.92.92,0,0,1,.25-.68.94.94,0,0,1,.67-.25h.71a.86.86,0,0,1,.93.93V56.61a.94.94,0,0,1-.25.67.92.92,0,0,1-.68.25Z" transform="translate(-112.99 -37.37)" fill="#828282"/><path d="M393.89,45.65l-4.11,0a1,1,0,0,1-.67-.23.87.87,0,0,1-.26-.66V38.3a.89.89,0,0,1,.93-.93h.71a.89.89,0,0,1,.93.93v4.91H394Zm.51,21.88a.86.86,0,0,1-.69,0,.61.61,0,0,1-.32-.59V65.85a1,1,0,0,1,.21-.61,1.43,1.43,0,0,1,.67-.44l1.72-.67a15.36,15.36,0,0,0,3.41-1.89,7.66,7.66,0,0,0,2.37-3.09,13,13,0,0,0,.86-5.14,13.29,13.29,0,0,0-.75-4.94,4.78,4.78,0,0,0-2.53-2.62,11.67,11.67,0,0,0-4.74-.8h-1.43a.94.94,0,0,1-.67-.25.92.92,0,0,1-.25-.68v-.58a.92.92,0,0,1,.25-.68.94.94,0,0,1,.67-.25h1.64a14.82,14.82,0,0,1,6.13,1,6.32,6.32,0,0,1,3.26,3.49,18,18,0,0,1,1,6.55,15.2,15.2,0,0,1-.75,5.06,10.85,10.85,0,0,1-2,3.57,11.82,11.82,0,0,1-2.9,2.4,20.69,20.69,0,0,1-3.34,1.57Z" transform="translate(-112.99 -37.37)" fill="#828282"/><path d="M409.81,57.53a.86.86,0,0,1-.92-.92V44.14a.92.92,0,0,1,.25-.68.94.94,0,0,1,.67-.25h.72a.94.94,0,0,1,.67.25.92.92,0,0,1,.25.68V56.61a.86.86,0,0,1-.92.92Z" transform="translate(-112.99 -37.37)" fill="#828282"/><path d="M417.08,67.19a.88.88,0,0,1-.67-.25.9.9,0,0,1-.26-.67V44.14a.88.88,0,0,1,.93-.93h7.47a12.56,12.56,0,0,1,5.86,1.2,7.63,7.63,0,0,1,3.41,3.49,12.64,12.64,0,0,1,1.11,5.56V66.27a.94.94,0,0,1-.25.67.92.92,0,0,1-.68.25h-.71a.86.86,0,0,1-.92-.92V53.67a8.55,8.55,0,0,0-1.89-5.9q-1.89-2.12-6.14-2.12h-5.62V66.27a.9.9,0,0,1-.26.67.88.88,0,0,1-.67.25Z" transform="translate(-112.99 -37.37)" fill="#828282"/><path d="M444.46,44h.72a.86.86,0,0,1,.92.92c-.2,1.29-.36,2.45-.5,3.47s-.24,2-.3,3-.08,2.11-.08,3.34V66.27a.94.94,0,0,1-.25.67.92.92,0,0,1-.68.25l-4.78-.08a.92.92,0,0,1-.68-.25.94.94,0,0,1-.25-.67V65.6a.88.88,0,0,1,.93-.93l3.15,0V54.93c0-1.26,0-2.4,0-3.42a29.67,29.67,0,0,1,.25-3.09c.14-1,.36-2.23.67-3.57a1.73,1.73,0,0,1,.25-.65A.71.71,0,0,1,444.46,44Zm-3.15,1.68a.94.94,0,0,1-.67-.25.92.92,0,0,1-.25-.68v-.58a.92.92,0,0,1,.25-.68.94.94,0,0,1,.67-.25h8.07a12.52,12.52,0,0,1,5.85,1.2,7.63,7.63,0,0,1,3.41,3.49,12.64,12.64,0,0,1,1.11,5.56V66.27a.86.86,0,0,1-.92.92h-.72a.86.86,0,0,1-.92-.92V53.67a8.55,8.55,0,0,0-1.89-5.9c-1.26-1.41-3.31-2.12-6.13-2.12Z" transform="translate(-112.99 -37.37)" fill="#828282"/><path d="M464.29,67.19a.7.7,0,0,1-.59-.27.92.92,0,0,1-.17-.69l3.19-21.38a1,1,0,0,1,.38-.63.82.82,0,0,1,.67-.13l.72.13a.85.85,0,0,1,.63.34.78.78,0,0,1,.12.67l-3.15,21a1,1,0,0,1-.36.69,1,1,0,0,1-.69.27Zm9.78-21.54h-9.36a.86.86,0,0,1-.93-.93v-.58a.86.86,0,0,1,.93-.93h9.57a8.2,8.2,0,0,1,4.5,1.26A8.5,8.5,0,0,1,481.86,48,12.4,12.4,0,0,1,483,53.46V66.27a.9.9,0,0,1-.26.67.88.88,0,0,1-.67.25H471.43a.92.92,0,0,1-.68-.25.94.94,0,0,1-.25-.67v-.59a.94.94,0,0,1,.25-.67.92.92,0,0,1,.68-.25h9V53.67a9.84,9.84,0,0,0-.84-4.2,6.93,6.93,0,0,0-2.26-2.81A5.44,5.44,0,0,0,474.07,45.65Z" transform="translate(-112.99 -37.37)" fill="#828282"/></g></svg>