<svg xmlns="http://www.w3.org/2000/svg" width="142.84mm" height="39.56mm" viewBox="0 0 404.91 112.14"><defs><style>.a{isolation:isolate;}.b{fill:#828282;}.c{fill:#3095aa;}.d{fill:#c24933;}</style></defs><title>shaharFitnessSlogan2</title><g class="a"><path class="b" d="M11.87,103.39a.86.86,0,0,1-.93-.92V90a.86.86,0,0,1,.93-.92h.71a.86.86,0,0,1,.92.92v12.48a.86.86,0,0,1-.92.92Z" transform="translate(-10.94 -6.12)"/><path class="b" d="M28.16,110.78A9.19,9.19,0,0,0,33,109.69,7.15,7.15,0,0,0,36,106.46a11.2,11.2,0,0,0,1-4.83V90a.86.86,0,0,1,.92-.92h.72a.86.86,0,0,1,.92.92v11.93a13.52,13.52,0,0,1-.8,4.77,10.14,10.14,0,0,1-2.27,3.61,9.76,9.76,0,0,1-3.52,2.27,11.67,11.67,0,0,1-4.58.69H25.51A8.7,8.7,0,0,1,21,112a8.83,8.83,0,0,1-3.32-3.5,11.35,11.35,0,0,1-1.24-5.44V90a.94.94,0,0,1,.25-.67.92.92,0,0,1,.68-.25h.71A.86.86,0,0,1,19,90l.17,13.23a7.25,7.25,0,0,0,2.12,5.61,7.69,7.69,0,0,0,5.4,2ZM18.25,105l-.13-2.4a12.8,12.8,0,0,0,5.46-1A5.43,5.43,0,0,0,26.19,99a7.9,7.9,0,0,0,.71-3.31V90a.86.86,0,0,1,.92-.92h.72a.86.86,0,0,1,.92.92v5.93a9.06,9.06,0,0,1-1.17,4.51,8.47,8.47,0,0,1-3.66,3.34A13.7,13.7,0,0,1,18.25,105Z" transform="translate(-10.94 -6.12)"/><path class="b" d="M43.11,103.39a.86.86,0,0,1-.92-.92V90a.86.86,0,0,1,.92-.92h.72a.86.86,0,0,1,.92.92v12.48a.86.86,0,0,1-.92.92Z" transform="translate(-10.94 -6.12)"/><path class="b" d="M47.86,113.05a.88.88,0,0,1-.67-.25.9.9,0,0,1-.26-.67v-6.68a17.28,17.28,0,0,1,.36-3.51,9.23,9.23,0,0,1,1.47-3.36,10.4,10.4,0,0,1,3.42-3l1.39,2A8,8,0,0,0,51,100a8.06,8.06,0,0,0-1.18,2.79,14,14,0,0,0-.29,2.84v6.47a.9.9,0,0,1-.26.67.88.88,0,0,1-.67.25Zm16.59,0a.86.86,0,0,1-.63-.21l-.42-.42L47.86,90.75a1.62,1.62,0,0,1-.34-.84.85.85,0,0,1,.25-.59.81.81,0,0,1,.59-.25h.8a.92.92,0,0,1,.65.21,3.87,3.87,0,0,1,.4.42l15.54,21.67a2.06,2.06,0,0,1,.27.48,1,1,0,0,1,.07.36.8.8,0,0,1-.26.59.77.77,0,0,1-.58.25Zm-4.71-7.47-1.05-2.15a9.75,9.75,0,0,0,3.39-2.24,4.83,4.83,0,0,0,1.17-2.42A17.91,17.91,0,0,0,63.44,96V90a.86.86,0,0,1,.92-.92h.72A.86.86,0,0,1,66,90v6.26a13.94,13.94,0,0,1-.4,3.42,7,7,0,0,1-1.72,3.07A14,14,0,0,1,59.74,105.58Z" transform="translate(-10.94 -6.12)"/><path class="b" d="M92.38,113.05a.88.88,0,0,1-.67-.25.9.9,0,0,1-.26-.67V99.53a8.55,8.55,0,0,0-1.89-5.9c-1.26-1.42-3.3-2.12-6.13-2.12H78.31a.89.89,0,0,1-.93-.93V90a.9.9,0,0,1,.26-.67.88.88,0,0,1,.67-.25h5.33a12.59,12.59,0,0,1,5.86,1.2,7.54,7.54,0,0,1,3.4,3.48A12.68,12.68,0,0,1,94,99.32v12.81a.9.9,0,0,1-.26.67.88.88,0,0,1-.67.25Z" transform="translate(-10.94 -6.12)"/><path class="b" d="M108.76,110.78a9.19,9.19,0,0,0,4.85-1.09,7.15,7.15,0,0,0,2.94-3.23,11.2,11.2,0,0,0,1-4.83V90a.86.86,0,0,1,.92-.92h.71a.92.92,0,0,1,.68.25.94.94,0,0,1,.25.67v11.93a13.52,13.52,0,0,1-.8,4.77A10.14,10.14,0,0,1,117,110.3a9.71,9.71,0,0,1-3.53,2.27,11.59,11.59,0,0,1-4.57.69h-2.82a8.78,8.78,0,0,1-7.83-4.72A11.24,11.24,0,0,1,97,103.1V90a.86.86,0,0,1,.92-.92h.72a.86.86,0,0,1,.92.92l.17,13.23a7.25,7.25,0,0,0,2.12,5.61,7.65,7.65,0,0,0,5.4,2ZM98.85,105l-.13-2.4a12.8,12.8,0,0,0,5.46-1,5.36,5.36,0,0,0,2.6-2.52,7.76,7.76,0,0,0,.72-3.31V90a.86.86,0,0,1,.92-.92h.72a.86.86,0,0,1,.92.92v5.93a9,9,0,0,1-1.18,4.51,8.39,8.39,0,0,1-3.65,3.34A13.7,13.7,0,0,1,98.85,105Z" transform="translate(-10.94 -6.12)"/><path class="b" d="M124.05,113.05a.92.92,0,0,1-.68-.25.94.94,0,0,1-.25-.67V90a.94.94,0,0,1,.25-.67.92.92,0,0,1,.68-.25h.71a.86.86,0,0,1,.92.92v22.14a.86.86,0,0,1-.92.92Z" transform="translate(-10.94 -6.12)"/><path class="b" d="M130.39,113.05a.88.88,0,0,1-.67-.25.9.9,0,0,1-.26-.67v-.59a.9.9,0,0,1,.26-.67.88.88,0,0,1,.67-.25h6q4.25,0,6.05-2.13a9.5,9.5,0,0,0,2-5.9c0-.64,0-1.16,0-1.55s0-.9,0-1.51a9.2,9.2,0,0,0-2-5.9c-1.22-1.42-3.24-2.12-6.07-2.12h-6a.89.89,0,0,1-.93-.93V90a.9.9,0,0,1,.26-.67.88.88,0,0,1,.67-.25h6.17a12.33,12.33,0,0,1,5.82,1.2,7.6,7.6,0,0,1,3.36,3.48,13.56,13.56,0,0,1,1.2,5.57c0,.61,0,1.19,0,1.72s0,1.12,0,1.76a13.61,13.61,0,0,1-1.2,5.55,7.55,7.55,0,0,1-3.36,3.5,12.33,12.33,0,0,1-5.82,1.2Z" transform="translate(-10.94 -6.12)"/><path class="b" d="M161.42,118.26a.9.9,0,0,1-.67-.25.91.91,0,0,1-.25-.67V90a.86.86,0,0,1,.92-.92h.72a.86.86,0,0,1,.92.92v27.35a.91.91,0,0,1-.25.67.9.9,0,0,1-.67.25Z" transform="translate(-10.94 -6.12)"/><path class="b" d="M166.51,113.05a.7.7,0,0,1-.59-.27.92.92,0,0,1-.17-.69l3.19-21.38a1,1,0,0,1,.38-.63A.83.83,0,0,1,170,90l.72.13a.85.85,0,0,1,.63.33.8.8,0,0,1,.12.68l-3.15,21a1,1,0,0,1-.35.69,1.06,1.06,0,0,1-.7.27Zm9.78-21.54h-9.36a.88.88,0,0,1-.93-.93V90a.94.94,0,0,1,.25-.67.92.92,0,0,1,.68-.25h9.57a8.2,8.2,0,0,1,4.5,1.26,8.5,8.5,0,0,1,3.08,3.57,12.4,12.4,0,0,1,1.12,5.42v12.81a.9.9,0,0,1-.26.67.88.88,0,0,1-.67.25H173.65a.92.92,0,0,1-.68-.25.94.94,0,0,1-.25-.67v-.59a.94.94,0,0,1,.25-.67.92.92,0,0,1,.68-.25h9V99.53a9.84,9.84,0,0,0-.84-4.2,7,7,0,0,0-2.26-2.82A5.5,5.5,0,0,0,176.29,91.51Z" transform="translate(-10.94 -6.12)"/><path class="b" d="M188.39,113.05a.88.88,0,0,1-.67-.25.9.9,0,0,1-.26-.67v-6.68a17.28,17.28,0,0,1,.36-3.51,9.23,9.23,0,0,1,1.47-3.36,10.4,10.4,0,0,1,3.42-3l1.39,2a8,8,0,0,0-2.6,2.39,8.06,8.06,0,0,0-1.18,2.79,14,14,0,0,0-.29,2.84v6.47a.9.9,0,0,1-.26.67.88.88,0,0,1-.67.25Zm16.59,0a.86.86,0,0,1-.63-.21l-.42-.42L188.39,90.75a1.62,1.62,0,0,1-.34-.84.85.85,0,0,1,.25-.59.81.81,0,0,1,.59-.25h.8a.92.92,0,0,1,.65.21,3.87,3.87,0,0,1,.4.42l15.54,21.67a2.06,2.06,0,0,1,.27.48,1,1,0,0,1,.07.36.8.8,0,0,1-.26.59.77.77,0,0,1-.58.25Zm-4.71-7.47-1.05-2.15a9.75,9.75,0,0,0,3.39-2.24,4.83,4.83,0,0,0,1.17-2.42A17.91,17.91,0,0,0,204,96V90a.86.86,0,0,1,.92-.92h.72a.86.86,0,0,1,.92.92v6.26a13.94,13.94,0,0,1-.4,3.42,7,7,0,0,1-1.72,3.07A14,14,0,0,1,200.27,105.58Z" transform="translate(-10.94 -6.12)"/><path class="b" d="M210.56,113.05a.69.69,0,0,1-.58-.27.88.88,0,0,1-.17-.69L213,90.71a.93.93,0,0,1,.38-.63.82.82,0,0,1,.67-.13l.71.13a.81.81,0,0,1,.76,1l-3.15,21a1,1,0,0,1-.36.69,1,1,0,0,1-.69.27Zm9.79-21.54H211a.9.9,0,0,1-.67-.26.88.88,0,0,1-.25-.67V90a.86.86,0,0,1,.92-.92h9.58a8.14,8.14,0,0,1,4.49,1.26,8.45,8.45,0,0,1,3.09,3.57,12.4,12.4,0,0,1,1.11,5.42v12.81a.86.86,0,0,1-.92.92H217.7a.86.86,0,0,1-.92-.92v-.59a.86.86,0,0,1,.92-.92h9V99.53a9.84,9.84,0,0,0-.84-4.2,7,7,0,0,0-2.27-2.82A5.47,5.47,0,0,0,220.35,91.51Z" transform="translate(-10.94 -6.12)"/></g><g class="a"><path class="c" d="M118,82.77q-8.16,0-12.14-4.39t-4-12.54V44.75a1.46,1.46,0,0,1,.41-1.08,1.43,1.43,0,0,1,1.09-.41h16A20.43,20.43,0,0,1,128.59,45a10.71,10.71,0,0,1,5.07,5.3,23.52,23.52,0,0,1,1.8,8.84c0,.46.07,1.21.07,2.28v3.16c0,1,0,1.79-.07,2.24a20.48,20.48,0,0,1-1.94,8.81A11.49,11.49,0,0,1,127.91,81,23.65,23.65,0,0,1,118,82.77Zm0-4q7.14,0,10.16-3.09t3.16-9.22c.05-.45.07-1.15.07-2.1V61.59c0-.93,0-1.63-.07-2.08q-.13-6.12-3.53-9.21A12.5,12.5,0,0,0,119,47.2H106V65.84q0,6.12,2.92,9.55T118,78.82Z" transform="translate(-10.94 -6.12)"/><path class="c" d="M137.09,82.09a1.46,1.46,0,0,1-1.08-.41,1.45,1.45,0,0,1-.41-1.09v-1a1.45,1.45,0,0,1,.41-1.09,1.46,1.46,0,0,1,1.08-.41h18v2.79a1,1,0,0,1-.4.92,2.17,2.17,0,0,1-1.09.24Zm15.71,0a1.27,1.27,0,0,1-1-.41,2.49,2.49,0,0,1-.47-1.09l-1.43-21.08q-.21-3.67-.55-6.42a8.17,8.17,0,0,0-1.63-4.32c-.86-1.05-2.35-1.57-4.49-1.57H140.7a1.43,1.43,0,0,1-1.09-.41,1.46,1.46,0,0,1-.41-1.08v-1a1.46,1.46,0,0,1,.41-1.08,1.43,1.43,0,0,1,1.09-.41h2.51a11.46,11.46,0,0,1,5.68,1.19,7.37,7.37,0,0,1,3.1,3.36,17.87,17.87,0,0,1,1.42,5.07c.28,1.93.48,4,.62,6.29l1.42,21.42a1,1,0,0,1-.34,1.09,1.7,1.7,0,0,1-1.15.41Z" transform="translate(-10.94 -6.12)"/><path class="c" d="M175,82.77q-8.91,0-12.68-4.35t-3.78-12.25V44.75a1.46,1.46,0,0,1,.41-1.08,1.45,1.45,0,0,1,1.09-.41h1.16a1.41,1.41,0,0,1,1.49,1.49V65.84q0,6.12,3,9.55T175,78.82q6.39,0,9.28-3.09t3-9.22c0-.45.05-1.2,0-2.24s0-2.1,0-3.16V58.83q-.14-6.39-2.82-9.18a9.19,9.19,0,0,0-6.91-2.79,10.7,10.7,0,0,0-2.89.48,10.5,10.5,0,0,0-2.89,1.29,1.22,1.22,0,0,1-1.19.07,1,1,0,0,1-.64-1v-.89a7,7,0,0,1,.07-1.08,1.14,1.14,0,0,1,.61-.82,14.06,14.06,0,0,1,3.13-1.5,13.37,13.37,0,0,1,4.14-.54A14.48,14.48,0,0,1,185,44.55a11.12,11.12,0,0,1,4.62,5.07,21.78,21.78,0,0,1,1.81,8.87c0,.45.06,1.26.06,2.42v3.5c0,1.18,0,2-.06,2.44a22.69,22.69,0,0,1-1.77,8.81A10.87,10.87,0,0,1,184.49,81,21.47,21.47,0,0,1,175,82.77Z" transform="translate(-10.94 -6.12)"/><path class="c" d="M196.32,66.45a1.5,1.5,0,0,1-1.09-.41,1.49,1.49,0,0,1-.41-1.09V44.75a1.41,1.41,0,0,1,1.5-1.49h1.16A1.39,1.39,0,0,1,199,44.75V65a1.48,1.48,0,0,1-.4,1.09,1.5,1.5,0,0,1-1.09.41Z" transform="translate(-10.94 -6.12)"/><path class="c" d="M206.79,47.2v6.46a15.28,15.28,0,0,0,.65,4.83,3.4,3.4,0,0,0,2.41,2.38l2.79.68a1.32,1.32,0,0,1,.85.71,3.08,3.08,0,0,1,.31,1.47v1a.92.92,0,0,1-.68.92,2.76,2.76,0,0,1-1.43.1l-2.58-.61a7.89,7.89,0,0,1-3.61-1.91,8.14,8.14,0,0,1-2.11-3.74,21.36,21.36,0,0,1-.68-5.78V44.75a1.46,1.46,0,0,1,.41-1.08,1.45,1.45,0,0,1,1.09-.41h12.17a15,15,0,0,1,7.89,1.94,12.43,12.43,0,0,1,4.89,5.64,22.81,22.81,0,0,1,1.84,9c.05.68.07,1.62.07,2.82s0,2.14-.07,2.83a22.87,22.87,0,0,1-1.84,9,12.43,12.43,0,0,1-4.89,5.68,15,15,0,0,1-7.89,1.94H205.09a1.46,1.46,0,0,1-1.08-.41,1.45,1.45,0,0,1-.41-1.09v-1a1.45,1.45,0,0,1,.41-1.09,1.46,1.46,0,0,1,1.08-.41H216q5.24,0,7.89-3.43t2.92-9.55c.05-.69.07-1.51.07-2.49s0-1.8-.07-2.48q-.14-6.12-2.85-9.55t-8-3.44Z" transform="translate(-10.94 -6.12)"/><path class="d" d="M258.2,82.09a1.5,1.5,0,0,1-1.09-.41,1.48,1.48,0,0,1-.4-1.09V60.19q0-6.12-3.07-9.55t-9.92-3.44h-8.3a1.39,1.39,0,0,1-1.49-1.49v-1a1.39,1.39,0,0,1,1.49-1.49h8.64a20.41,20.41,0,0,1,9.48,1.94,12.28,12.28,0,0,1,5.51,5.64,20.47,20.47,0,0,1,1.8,9V80.59a1.48,1.48,0,0,1-.4,1.09,1.5,1.5,0,0,1-1.09.41Z" transform="translate(-10.94 -6.12)"/><path class="d" d="M266.09,82.09a1.41,1.41,0,0,1-1.5-1.5V44.75a1.46,1.46,0,0,1,.41-1.08,1.45,1.45,0,0,1,1.09-.41h12.1a20.42,20.42,0,0,1,9.49,1.94,12.28,12.28,0,0,1,5.51,5.64,20.47,20.47,0,0,1,1.8,9V80.59a1.49,1.49,0,0,1-.41,1.09,1.47,1.47,0,0,1-1.09.41h-1.15a1.47,1.47,0,0,1-1.09-.41,1.49,1.49,0,0,1-.41-1.09V60.19q0-6.12-3.06-9.55t-9.93-3.44h-9.11V80.59a1.45,1.45,0,0,1-.41,1.09,1.46,1.46,0,0,1-1.08.41Z" transform="translate(-10.94 -6.12)"/><path class="d" d="M317,78.42a15,15,0,0,0,7.85-1.77,11.67,11.67,0,0,0,4.77-5.24,18.27,18.27,0,0,0,1.59-7.82V44.75a1.46,1.46,0,0,1,.41-1.08,1.43,1.43,0,0,1,1.09-.41h1.16a1.42,1.42,0,0,1,1.08.41,1.46,1.46,0,0,1,.41,1.08V64.07a21.86,21.86,0,0,1-1.29,7.72,16.59,16.59,0,0,1-3.67,5.84,15.55,15.55,0,0,1-5.72,3.67,19,19,0,0,1-7.41,1.13h-4.55a14.19,14.19,0,0,1-12.69-7.65,18.34,18.34,0,0,1-2-8.81V44.75a1.41,1.41,0,0,1,1.49-1.49h1.16a1.45,1.45,0,0,1,1.09.41,1.46,1.46,0,0,1,.41,1.08l.27,21.42q0,5.92,3.43,9.08a12.39,12.39,0,0,0,8.74,3.17ZM301,69l-.2-3.87c3.85-.1,6.8-.66,8.84-1.7a8.84,8.84,0,0,0,4.21-4.08A12.6,12.6,0,0,0,315,54V44.75a1.46,1.46,0,0,1,.41-1.08,1.43,1.43,0,0,1,1.09-.41h1.15a1.43,1.43,0,0,1,1.09.41,1.46,1.46,0,0,1,.41,1.08v9.59a14.58,14.58,0,0,1-1.91,7.31,13.58,13.58,0,0,1-5.91,5.41A22.22,22.22,0,0,1,301,69Z" transform="translate(-10.94 -6.12)"/></g><g class="a"><path class="b" d="M342.09,57.69a.59.59,0,0,1-.43-.16.61.61,0,0,1-.17-.43V43.45a.58.58,0,0,1,.17-.43.6.6,0,0,1,.43-.17h5a8.45,8.45,0,0,1,3.69.71,4.74,4.74,0,0,1,2.17,2.12,7.67,7.67,0,0,1,.72,3.51V57.1a.65.65,0,0,1-.16.43.58.58,0,0,1-.44.16Zm1.64-2.08h7.59V49.32a4.68,4.68,0,0,0-1-3.23,4.27,4.27,0,0,0-3.35-1.16h-3.2Z" transform="translate(-10.94 -6.12)"/><path class="b" d="M356.39,59.12a.53.53,0,0,1-.49,0,.45.45,0,0,1-.24-.41V57.8a1,1,0,0,1,.11-.44.56.56,0,0,1,.33-.29l5.49-1.79A6,6,0,0,0,363.88,54,4.24,4.24,0,0,0,365,52.18a7.39,7.39,0,0,0,.33-2.26V43.45a.57.57,0,0,1,.16-.43.61.61,0,0,1,.43-.17h1.17a.55.55,0,0,1,.6.6v7.2A6.17,6.17,0,0,1,367,53.5a7,7,0,0,1-1.93,2.34,9,9,0,0,1-3,1.52Zm3.41-2-3.67-13.18a1.74,1.74,0,0,0-.09-.31.52.52,0,0,1,0-.21.5.5,0,0,1,.16-.37.49.49,0,0,1,.36-.15h1.28a.53.53,0,0,1,.59.39L362,56.47Z" transform="translate(-10.94 -6.12)"/><path class="b" d="M383.72,57.69a.57.57,0,0,1-.6-.59V49.32a4.68,4.68,0,0,0-1-3.23,4.28,4.28,0,0,0-3.36-1.16h-3.4a.58.58,0,0,1-.43-.17.6.6,0,0,1-.17-.43v-.88a.58.58,0,0,1,.6-.6h3.53a8.56,8.56,0,0,1,3.71.7,4.67,4.67,0,0,1,2.2,2.12,7.72,7.72,0,0,1,.72,3.52V57.1a.55.55,0,0,1-.59.59Z" transform="translate(-10.94 -6.12)"/><path class="b" d="M388.94,57.69a.6.6,0,0,1-.43-.16.61.61,0,0,1-.17-.43V43.45a.58.58,0,0,1,.17-.43.61.61,0,0,1,.43-.17H394a8.58,8.58,0,0,1,3.71.71,4.69,4.69,0,0,1,2.19,2.14,7.61,7.61,0,0,1,.73,3.54V57.1a.57.57,0,0,1-.6.59h-1.17a.58.58,0,0,1-.44-.16.64.64,0,0,1-.15-.43V49.32a4.68,4.68,0,0,0-1-3.23,4.29,4.29,0,0,0-3.36-1.16h-3.17V57.1a.6.6,0,0,1-.16.43.53.53,0,0,1-.41.16Z" transform="translate(-10.94 -6.12)"/><path class="b" d="M403.42,57.69a.51.51,0,0,1-.39-.18.61.61,0,0,1-.13-.44l2.21-12.74a.68.68,0,0,1,.24-.4.48.48,0,0,1,.44-.09l1,0a.62.62,0,0,1,.42.22.51.51,0,0,1,.1.45l-2.08,12.51a.69.69,0,0,1-.22.44.65.65,0,0,1-.46.18ZM410,45h-6.32a.59.59,0,0,1-.44-.17.61.61,0,0,1-.15-.43v-.93a.61.61,0,0,1,.15-.43.59.59,0,0,1,.44-.17h6.61a5.51,5.51,0,0,1,2.87.75,5.28,5.28,0,0,1,2,2.17,7.64,7.64,0,0,1,.71,3.42V57.1a.64.64,0,0,1-.15.43.61.61,0,0,1-.45.16h-6.7a.57.57,0,0,1-.6-.59v-.89a.57.57,0,0,1,.17-.43.58.58,0,0,1,.43-.17h4.94V49.35A5.55,5.55,0,0,0,413,47a3.63,3.63,0,0,0-1.25-1.52A3.16,3.16,0,0,0,410,45Z" transform="translate(-10.94 -6.12)"/></g><g class="a"><path class="b" d="M299.23,35.94a.9.9,0,0,1-.67-.26.88.88,0,0,1-.25-.67V12.88a.88.88,0,0,1,.25-.67.9.9,0,0,1,.67-.26h7.43a12.56,12.56,0,0,1,5.86,1.2,7.63,7.63,0,0,1,3.41,3.49A12.64,12.64,0,0,1,317,22.2V35a.88.88,0,0,1-.93.93Zm1.6-2.44h13.65V22.41a8.55,8.55,0,0,0-1.89-5.9q-1.89-2.12-6.14-2.12h-5.62Z" transform="translate(-10.94 -6.12)"/><path class="b" d="M320.86,26.28a.9.9,0,0,1-.67-.26.88.88,0,0,1-.25-.67V12.88a.88.88,0,0,1,.25-.67.9.9,0,0,1,.67-.26h.71a.88.88,0,0,1,.93.93V25.35a.88.88,0,0,1-.93.93Z" transform="translate(-10.94 -6.12)"/><path class="b" d="M330.1,14.39l-4.12,0a1,1,0,0,1-.67-.23.84.84,0,0,1-.25-.65V7a.86.86,0,0,1,.92-.92h.72a.86.86,0,0,1,.92.92V12h2.61Zm.5,21.88a.83.83,0,0,1-.69,0,.61.61,0,0,1-.31-.59v-1a1,1,0,0,1,.21-.61,1.43,1.43,0,0,1,.67-.44l1.72-.67A14.53,14.53,0,0,0,335.6,31,7.58,7.58,0,0,0,338,27.89a12.75,12.75,0,0,0,.87-5.14,13.3,13.3,0,0,0-.76-4.94,4.73,4.73,0,0,0-2.52-2.62,11.75,11.75,0,0,0-4.75-.8h-1.42a.92.92,0,0,1-.68-.25.94.94,0,0,1-.25-.67v-.59a.88.88,0,0,1,.93-.93H331A14.87,14.87,0,0,1,337.16,13a6.3,6.3,0,0,1,3.25,3.49,17.76,17.76,0,0,1,1,6.55,14.93,14.93,0,0,1-.76,5.06,10.51,10.51,0,0,1-2,3.57,11.77,11.77,0,0,1-2.89,2.4,20.69,20.69,0,0,1-3.34,1.57Z" transform="translate(-10.94 -6.12)"/><path class="b" d="M345.3,26.28a.9.9,0,0,1-.67-.26.88.88,0,0,1-.25-.67V12.88a.88.88,0,0,1,.25-.67.9.9,0,0,1,.67-.26H346a.9.9,0,0,1,.67.26.88.88,0,0,1,.25.67V25.35a.88.88,0,0,1-.25.67.9.9,0,0,1-.67.26Z" transform="translate(-10.94 -6.12)"/><path class="b" d="M351,35.94a.88.88,0,0,1-.93-.93V12.88A.88.88,0,0,1,351,12h7.47a12.59,12.59,0,0,1,5.86,1.2,7.56,7.56,0,0,1,3.4,3.49,12.64,12.64,0,0,1,1.12,5.56V35a.89.89,0,0,1-.93.93h-.71a.89.89,0,0,1-.93-.93V22.41a8.55,8.55,0,0,0-1.89-5.9q-1.89-2.12-6.13-2.12h-5.63V35a.88.88,0,0,1-.25.67.9.9,0,0,1-.67.26Z" transform="translate(-10.94 -6.12)"/><path class="b" d="M377.68,12.71h.72a.86.86,0,0,1,.92.92c-.19,1.29-.36,2.45-.5,3.47s-.24,2-.3,3-.08,2.11-.08,3.34V35a.88.88,0,0,1-.25.67.9.9,0,0,1-.67.26l-4.79-.09a.88.88,0,0,1-.67-.25.9.9,0,0,1-.26-.67v-.59a.9.9,0,0,1,.26-.67.88.88,0,0,1,.67-.25l3.15,0V23.67c0-1.26,0-2.4,0-3.42a29.67,29.67,0,0,1,.25-3.09c.14-1,.37-2.22.68-3.57a1.45,1.45,0,0,1,.25-.65A.67.67,0,0,1,377.68,12.71Zm-3.14,1.68a.92.92,0,0,1-.68-.25.94.94,0,0,1-.25-.67v-.59a.88.88,0,0,1,.93-.93h8.06a12.59,12.59,0,0,1,5.86,1.2,7.61,7.61,0,0,1,3.4,3.49A12.64,12.64,0,0,1,393,22.2V35a.88.88,0,0,1-.25.67.9.9,0,0,1-.67.26h-.71a.91.91,0,0,1-.68-.26.92.92,0,0,1-.25-.67V22.41a8.55,8.55,0,0,0-1.89-5.9q-1.89-2.12-6.13-2.12Z" transform="translate(-10.94 -6.12)"/><path class="b" d="M396.8,35.94a.7.7,0,0,1-.59-.28A.92.92,0,0,1,396,35l3.19-21.38a1,1,0,0,1,.38-.63.78.78,0,0,1,.67-.12L401,13a.87.87,0,0,1,.63.34.82.82,0,0,1,.12.67L398.6,35a1,1,0,0,1-.36.69,1,1,0,0,1-.69.28Zm9.78-21.55h-9.36a.91.91,0,0,1-.68-.25.94.94,0,0,1-.25-.67v-.59a.92.92,0,0,1,.25-.67.91.91,0,0,1,.68-.26h9.57a8.2,8.2,0,0,1,4.5,1.26,8.5,8.5,0,0,1,3.08,3.57,12.4,12.4,0,0,1,1.11,5.42V35a.88.88,0,0,1-.25.67.9.9,0,0,1-.67.26H403.93a.9.9,0,0,1-.67-.26A.92.92,0,0,1,403,35v-.59a.94.94,0,0,1,.25-.67.9.9,0,0,1,.67-.25h9V22.41a9.9,9.9,0,0,0-.84-4.2,6.87,6.87,0,0,0-2.27-2.81A5.48,5.48,0,0,0,406.58,14.39Z" transform="translate(-10.94 -6.12)"/></g></svg>