<svg xmlns="http://www.w3.org/2000/svg" width="317.13" height="78.62" viewBox="0 0 317.13 78.62"><defs><style>.a{isolation:isolate;}.b{fill:#828282;}.c{fill:#3095aa;}.d{fill:#c24933;}</style></defs><title>dror_Asset 13</title><g class="a"><path class="b" d="M6.56,79.1a.92.92,0,0,1-.68-.25.94.94,0,0,1-.25-.67V65.71a.86.86,0,0,1,.93-.93h.71a.94.94,0,0,1,.67.25.92.92,0,0,1,.25.68V78.18a.86.86,0,0,1-.92.92Z" transform="translate(-5.3 -15.35)"/><path class="b" d="M23.82,86.5a9.29,9.29,0,0,0,4.85-1.1,7.15,7.15,0,0,0,2.94-3.23,11.2,11.2,0,0,0,1-4.83V65.71a.92.92,0,0,1,.25-.68.94.94,0,0,1,.67-.25h.71a.86.86,0,0,1,.93.93V77.63a13.48,13.48,0,0,1-.8,4.77A10,10,0,0,1,32.09,86a9.67,9.67,0,0,1-3.53,2.27A11.59,11.59,0,0,1,24,89H21.17a8.73,8.73,0,0,1-7.83-4.72,11.24,11.24,0,0,1-1.24-5.44V65.71a.92.92,0,0,1,.25-.68.94.94,0,0,1,.67-.25h.72a.94.94,0,0,1,.67.25.92.92,0,0,1,.25.68l.17,13.23A7.24,7.24,0,0,0,17,84.54a7.66,7.66,0,0,0,5.4,2Zm-9.91-5.8-.13-2.39a13.11,13.11,0,0,0,5.46-1,5.45,5.45,0,0,0,2.6-2.52,7.84,7.84,0,0,0,.72-3.32V65.71a.92.92,0,0,1,.25-.68.94.94,0,0,1,.67-.25h.72a1,1,0,0,1,.67.25.92.92,0,0,1,.25.68v5.92a8.94,8.94,0,0,1-1.18,4.51,8.39,8.39,0,0,1-3.65,3.34A13.7,13.7,0,0,1,13.91,80.7Z" transform="translate(-5.3 -15.35)"/><path class="b" d="M39.73,79.1a.86.86,0,0,1-.92-.92V65.71a.92.92,0,0,1,.25-.68.94.94,0,0,1,.67-.25h.72a.94.94,0,0,1,.67.25.92.92,0,0,1,.25.68V78.18a.86.86,0,0,1-.92.92Z" transform="translate(-5.3 -15.35)"/><path class="b" d="M45.45,88.76a.92.92,0,0,1-.68-.25.94.94,0,0,1-.25-.67V81.16a17.26,17.26,0,0,1,.36-3.5,9.09,9.09,0,0,1,1.47-3.36,10.41,10.41,0,0,1,3.42-3l1.39,2a8,8,0,0,0-2.61,2.4,7.88,7.88,0,0,0-1.17,2.79,13.9,13.9,0,0,0-.3,2.83v6.47a.9.9,0,0,1-.25.67.88.88,0,0,1-.67.25Zm16.59,0a.86.86,0,0,1-.63-.21c-.14-.13-.28-.28-.42-.42L45.45,66.46a1.56,1.56,0,0,1-.34-.84.81.81,0,0,1,.25-.59.85.85,0,0,1,.59-.25h.8a.92.92,0,0,1,.65.21,3.87,3.87,0,0,1,.4.42L63.34,87.08a1.91,1.91,0,0,1,.27.49,1.12,1.12,0,0,1,.06.35.85.85,0,0,1-.84.84Zm-4.71-7.47-1-2.14a9.73,9.73,0,0,0,3.38-2.25,4.85,4.85,0,0,0,1.18-2.42A17.82,17.82,0,0,0,61,71.75v-6a.92.92,0,0,1,.25-.68.94.94,0,0,1,.67-.25h.72a.94.94,0,0,1,.67.25.92.92,0,0,1,.25.68V72a14.08,14.08,0,0,1-.4,3.43,7,7,0,0,1-1.72,3.06A14,14,0,0,1,57.33,81.29Z" transform="translate(-5.3 -15.35)"/><path class="b" d="M93.58,88.76a.88.88,0,0,1-.67-.25.9.9,0,0,1-.26-.67V75.24a8.55,8.55,0,0,0-1.89-5.9c-1.26-1.42-3.3-2.12-6.13-2.12H79.51a.92.92,0,0,1-.67-.25.91.91,0,0,1-.26-.68v-.58a.88.88,0,0,1,.93-.93h5.33A12.59,12.59,0,0,1,90.7,66a7.56,7.56,0,0,1,3.4,3.49A12.5,12.5,0,0,1,95.22,75V87.84a.9.9,0,0,1-.26.67.88.88,0,0,1-.67.25Z" transform="translate(-5.3 -15.35)"/><path class="b" d="M110.92,86.5a9.27,9.27,0,0,0,4.85-1.1,7.12,7.12,0,0,0,3-3.23,11.35,11.35,0,0,0,1-4.83V65.71a.86.86,0,0,1,.93-.93h.71A.94.94,0,0,1,122,65a.92.92,0,0,1,.25.68V77.63a13.48,13.48,0,0,1-.79,4.77A10.19,10.19,0,0,1,119.2,86a9.67,9.67,0,0,1-3.53,2.27,11.64,11.64,0,0,1-4.58.69h-2.81a8.7,8.7,0,0,1-7.83-4.72,11.24,11.24,0,0,1-1.24-5.44V65.71a.92.92,0,0,1,.25-.68.94.94,0,0,1,.67-.25h.71a.86.86,0,0,1,.93.93l.17,13.23a7.21,7.21,0,0,0,2.12,5.6,7.65,7.65,0,0,0,5.39,2ZM101,80.7l-.12-2.39a13.11,13.11,0,0,0,5.46-1,5.49,5.49,0,0,0,2.6-2.52,7.83,7.83,0,0,0,.71-3.32V65.71a.88.88,0,0,1,.93-.93h.71a.88.88,0,0,1,.93.93v5.92a9,9,0,0,1-1.18,4.51,8.39,8.39,0,0,1-3.65,3.34A13.75,13.75,0,0,1,101,80.7Z" transform="translate(-5.3 -15.35)"/><path class="b" d="M127.18,88.76a.88.88,0,0,1-.67-.25.9.9,0,0,1-.26-.67V65.71a.88.88,0,0,1,.93-.93h.71a.88.88,0,0,1,.93.93V87.84a.9.9,0,0,1-.26.67.88.88,0,0,1-.67.25Z" transform="translate(-5.3 -15.35)"/><path class="b" d="M134.49,88.76a.92.92,0,0,1-.68-.25.94.94,0,0,1-.25-.67v-.59a.94.94,0,0,1,.25-.67.92.92,0,0,1,.68-.25h6c2.83,0,4.84-.71,6.05-2.12a9.53,9.53,0,0,0,2-5.9c0-.65,0-1.16,0-1.56s0-.89,0-1.51a9.2,9.2,0,0,0-1.95-5.9c-1.22-1.42-3.24-2.12-6.07-2.12h-6a1,1,0,0,1-.68-.25,1,1,0,0,1-.25-.68v-.58a.86.86,0,0,1,.93-.93h6.17a12.33,12.33,0,0,1,5.82,1.2,7.72,7.72,0,0,1,3.36,3.49A13.35,13.35,0,0,1,151,75c0,.62.05,1.19.05,1.72s0,1.12-.05,1.77a13.44,13.44,0,0,1-1.19,5.54,7.72,7.72,0,0,1-3.36,3.51,12.46,12.46,0,0,1-5.82,1.19Z" transform="translate(-5.3 -15.35)"/><path class="b" d="M169.13,94a.86.86,0,0,1-.92-.92V65.71a.92.92,0,0,1,.25-.68.94.94,0,0,1,.67-.25h.72a.94.94,0,0,1,.67.25.92.92,0,0,1,.25.68V93.05a.86.86,0,0,1-.92.92Z" transform="translate(-5.3 -15.35)"/><path class="b" d="M175.18,88.76a.71.71,0,0,1-.59-.27.92.92,0,0,1-.16-.69l3.19-21.38a.93.93,0,0,1,.38-.63.78.78,0,0,1,.67-.12l.71.12a.83.83,0,0,1,.63.34.82.82,0,0,1,.13.67L177,87.8a1,1,0,0,1-.36.69,1,1,0,0,1-.69.27ZM185,67.22H175.6a.94.94,0,0,1-.67-.25.91.91,0,0,1-.25-.68v-.58a.92.92,0,0,1,.25-.68.94.94,0,0,1,.67-.25h9.58A8.14,8.14,0,0,1,189.67,66a8.45,8.45,0,0,1,3.09,3.57A12.4,12.4,0,0,1,193.87,75V87.84a.86.86,0,0,1-.92.92H182.32a.86.86,0,0,1-.92-.92v-.59a.86.86,0,0,1,.92-.92h9V75.24a9.87,9.87,0,0,0-.84-4.2,7,7,0,0,0-2.27-2.81A5.41,5.41,0,0,0,185,67.22Z" transform="translate(-5.3 -15.35)"/><path class="b" d="M198,88.76a.86.86,0,0,1-.92-.92V81.16a18,18,0,0,1,.35-3.5,9.09,9.09,0,0,1,1.47-3.36,10.46,10.46,0,0,1,3.43-3l1.38,2a8,8,0,0,0-2.6,2.4A7.91,7.91,0,0,0,200,78.54a14.62,14.62,0,0,0-.29,2.83v6.47a.94.94,0,0,1-.25.67.92.92,0,0,1-.68.25Zm16.59,0a.86.86,0,0,1-.63-.21c-.14-.13-.28-.28-.42-.42L198,66.46a1.64,1.64,0,0,1-.34-.84A.82.82,0,0,1,198,65a.81.81,0,0,1,.58-.25h.8A.92.92,0,0,1,200,65a3.1,3.1,0,0,1,.4.42l15.54,21.67a2.41,2.41,0,0,1,.28.49,1.12,1.12,0,0,1,.06.35.83.83,0,0,1-.25.59.81.81,0,0,1-.59.25Zm-4.7-7.47-1-2.14a9.93,9.93,0,0,0,3.38-2.25,4.75,4.75,0,0,0,1.17-2.42,17.82,17.82,0,0,0,.19-2.73v-6a.86.86,0,0,1,.93-.93h.71a.94.94,0,0,1,.67.25.92.92,0,0,1,.25.68V72a14.59,14.59,0,0,1-.39,3.43,7,7,0,0,1-1.73,3.06A14,14,0,0,1,209.92,81.29Z" transform="translate(-5.3 -15.35)"/><path class="b" d="M221.17,88.76a.71.71,0,0,1-.59-.27.92.92,0,0,1-.16-.69l3.19-21.38a.93.93,0,0,1,.38-.63.78.78,0,0,1,.67-.12l.71.12a.83.83,0,0,1,.63.34.82.82,0,0,1,.13.67L223,87.8a1,1,0,0,1-.36.69,1,1,0,0,1-.69.27ZM231,67.22h-9.37a.94.94,0,0,1-.67-.25.91.91,0,0,1-.25-.68v-.58a.92.92,0,0,1,.25-.68.94.94,0,0,1,.67-.25h9.58A8.14,8.14,0,0,1,235.66,66a8.45,8.45,0,0,1,3.09,3.57A12.4,12.4,0,0,1,239.86,75V87.84a.86.86,0,0,1-.92.92H228.31a.86.86,0,0,1-.92-.92v-.59a.86.86,0,0,1,.92-.92h9V75.24a9.87,9.87,0,0,0-.84-4.2,7,7,0,0,0-2.27-2.81A5.41,5.41,0,0,0,231,67.22Z" transform="translate(-5.3 -15.35)"/></g><g class="a"><path class="c" d="M21.42,58.48q-8.16,0-12.14-4.39t-4-12.54V20.47A1.41,1.41,0,0,1,6.8,19h16A20.47,20.47,0,0,1,32,20.74,10.78,10.78,0,0,1,37.09,26a23.75,23.75,0,0,1,1.81,8.84q.06.69.06,2.28v3.16q0,1.57-.06,2.25A20.76,20.76,0,0,1,37,51.37a11.49,11.49,0,0,1-5.61,5.34A23.73,23.73,0,0,1,21.42,58.48Zm0-3.94q7.14,0,10.17-3.1t3.16-9.21c0-.45.07-1.16.07-2.11V37.3c0-.93,0-1.62-.07-2.08Q34.61,29.1,31.21,26a12.54,12.54,0,0,0-8.77-3.09h-13V41.55q0,6.12,2.93,9.55T21.42,54.54Z" transform="translate(-5.3 -15.35)"/><path class="c" d="M40.53,57.8A1.41,1.41,0,0,1,39,56.3v-.95a1.5,1.5,0,0,1,.41-1.09,1.46,1.46,0,0,1,1.09-.4h18v2.78a1,1,0,0,1-.41.92,2.15,2.15,0,0,1-1.09.24Zm15.71,0a1.24,1.24,0,0,1-1-.41,2.34,2.34,0,0,1-.48-1.09L53.31,35.22c-.13-2.44-.32-4.59-.54-6.42a8.26,8.26,0,0,0-1.63-4.32c-.87-1-2.36-1.56-4.49-1.56H44.13A1.5,1.5,0,0,1,43,22.51a1.48,1.48,0,0,1-.4-1.09v-1a1.48,1.48,0,0,1,.4-1.09A1.5,1.5,0,0,1,44.13,19h2.52a11.51,11.51,0,0,1,5.68,1.19,7.47,7.47,0,0,1,3.09,3.37,17.7,17.7,0,0,1,1.43,5.06q.4,2.89.61,6.29L58.89,56.3a1.07,1.07,0,0,1-.34,1.09,1.75,1.75,0,0,1-1.16.41Z" transform="translate(-5.3 -15.35)"/><path class="c" d="M78.4,58.48q-8.91,0-12.68-4.35T62,41.89V20.47a1.48,1.48,0,0,1,.4-1.09A1.5,1.5,0,0,1,63.44,19H64.6a1.41,1.41,0,0,1,1.5,1.5V41.55q0,6.12,3,9.55t9.35,3.44q6.39,0,9.29-3.1t3-9.21a20.11,20.11,0,0,0,0-2.25c0-1,0-2.09,0-3.16V34.54q-.13-6.39-2.82-9.18A9.18,9.18,0,0,0,81,22.58a11,11,0,0,0-2.89.47,10.37,10.37,0,0,0-2.89,1.29,1.22,1.22,0,0,1-1.19.07,1,1,0,0,1-.65-.95v-.88a7.13,7.13,0,0,1,.07-1.09,1.17,1.17,0,0,1,.61-.82,14.23,14.23,0,0,1,3.13-1.49,13.11,13.11,0,0,1,4.15-.55,14.58,14.58,0,0,1,7.1,1.63,11.09,11.09,0,0,1,4.63,5.07,21.66,21.66,0,0,1,1.8,8.87c0,.46.07,1.26.07,2.42v3.5c0,1.18,0,2-.07,2.45a22.5,22.5,0,0,1-1.77,8.8,10.87,10.87,0,0,1-5.17,5.34A21.44,21.44,0,0,1,78.4,58.48Z" transform="translate(-5.3 -15.35)"/><path class="c" d="M99.75,42.16a1.46,1.46,0,0,1-1.08-.41,1.43,1.43,0,0,1-.41-1.09V20.47a1.45,1.45,0,0,1,.41-1.09A1.46,1.46,0,0,1,99.75,19h1.16a1.41,1.41,0,0,1,1.5,1.5V40.66a1.47,1.47,0,0,1-.41,1.09,1.49,1.49,0,0,1-1.09.41Z" transform="translate(-5.3 -15.35)"/><path class="c" d="M110.23,22.92v6.46a15.2,15.2,0,0,0,.64,4.82,3.4,3.4,0,0,0,2.42,2.38l2.78.68a1.31,1.31,0,0,1,.85.72,3,3,0,0,1,.31,1.46v1a.91.91,0,0,1-.68.92,2.76,2.76,0,0,1-1.43.1l-2.58-.61a8,8,0,0,1-3.61-1.9,8.14,8.14,0,0,1-2.1-3.74,21.07,21.07,0,0,1-.68-5.78V20.47a1.48,1.48,0,0,1,.4-1.09,1.5,1.5,0,0,1,1.09-.41h12.17a15,15,0,0,1,7.89,1.94,12.51,12.51,0,0,1,4.9,5.64,23.07,23.07,0,0,1,1.83,9c0,.68.07,1.63.07,2.83s0,2.14-.07,2.82a23.06,23.06,0,0,1-1.83,9,12.46,12.46,0,0,1-4.9,5.68,15,15,0,0,1-7.89,1.94H108.53a1.41,1.41,0,0,1-1.5-1.5v-.95a1.5,1.5,0,0,1,.41-1.09,1.46,1.46,0,0,1,1.09-.4h10.94q5.23,0,7.89-3.44t2.93-9.55c0-.68.06-1.51.06-2.48s0-1.81-.06-2.49q-.15-6.12-2.86-9.55c-1.81-2.29-4.47-3.43-8-3.43Z" transform="translate(-5.3 -15.35)"/><path class="d" d="M161.63,57.8a1.46,1.46,0,0,1-1.08-.41,1.43,1.43,0,0,1-.41-1.09V35.9q0-6.12-3.06-9.55t-9.93-3.43h-8.3a1.46,1.46,0,0,1-1.08-.41,1.45,1.45,0,0,1-.41-1.09v-1a1.45,1.45,0,0,1,.41-1.09,1.46,1.46,0,0,1,1.08-.41h8.64A20.48,20.48,0,0,1,157,20.91a12.26,12.26,0,0,1,5.5,5.64,20.39,20.39,0,0,1,1.81,9V56.3a1.47,1.47,0,0,1-.41,1.09,1.49,1.49,0,0,1-1.09.41Z" transform="translate(-5.3 -15.35)"/><path class="d" d="M169.52,57.8a1.5,1.5,0,0,1-1.09-.41,1.46,1.46,0,0,1-.4-1.09V20.47a1.48,1.48,0,0,1,.4-1.09,1.5,1.5,0,0,1,1.09-.41h12.11a20.41,20.41,0,0,1,9.48,1.94,12.28,12.28,0,0,1,5.51,5.64,20.53,20.53,0,0,1,1.8,9V56.3a1.43,1.43,0,0,1-.41,1.09,1.46,1.46,0,0,1-1.08.41h-1.16a1.49,1.49,0,0,1-1.09-.41,1.47,1.47,0,0,1-.41-1.09V35.9q0-6.12-3.06-9.55t-9.92-3.43h-9.12V56.3a1.46,1.46,0,0,1-.4,1.09,1.5,1.5,0,0,1-1.09.41Z" transform="translate(-5.3 -15.35)"/><path class="d" d="M220.45,54.13a15.1,15.1,0,0,0,7.86-1.77,11.6,11.6,0,0,0,4.76-5.24,18.23,18.23,0,0,0,1.6-7.82V20.47a1.48,1.48,0,0,1,.4-1.09,1.5,1.5,0,0,1,1.09-.41h1.16a1.5,1.5,0,0,1,1.09.41,1.48,1.48,0,0,1,.4,1.09V39.78a21.82,21.82,0,0,1-1.29,7.72,16.4,16.4,0,0,1-3.67,5.85A15.72,15.72,0,0,1,228.14,57a19,19,0,0,1-7.41,1.12h-4.56a14.16,14.16,0,0,1-12.68-7.65,18.23,18.23,0,0,1-2-8.81V20.47a1.49,1.49,0,0,1,.41-1.09A1.47,1.47,0,0,1,203,19h1.15a1.47,1.47,0,0,1,1.09.41,1.49,1.49,0,0,1,.41,1.09l.27,21.42q0,5.91,3.44,9.08a12.42,12.42,0,0,0,8.73,3.16Zm-16-9.39-.21-3.87q5.78-.13,8.84-1.7a8.78,8.78,0,0,0,4.22-4.08,12.73,12.73,0,0,0,1.15-5.37V20.47a1.41,1.41,0,0,1,1.5-1.5h1.16a1.46,1.46,0,0,1,1.08.41,1.45,1.45,0,0,1,.41,1.09v9.59a14.6,14.6,0,0,1-1.9,7.31,13.65,13.65,0,0,1-5.92,5.4A22.17,22.17,0,0,1,204.41,44.74Z" transform="translate(-5.3 -15.35)"/></g><g class="a"><path class="b" d="M247.27,33.81a.58.58,0,0,1-.6-.6V19.56a.58.58,0,0,1,.6-.6h5a8.31,8.31,0,0,1,3.69.72,4.65,4.65,0,0,1,2.17,2.12,7.62,7.62,0,0,1,.71,3.51v7.9a.63.63,0,0,1-.15.43.6.6,0,0,1-.45.17Zm1.64-2.08h7.59V25.44a4.69,4.69,0,0,0-1-3.24A4.3,4.3,0,0,0,252.11,21h-3.2Z" transform="translate(-5.3 -15.35)"/><path class="b" d="M260.89,27.78a.61.61,0,0,1-.43-.17.6.6,0,0,1-.17-.43V19.56a.6.6,0,0,1,.17-.43.61.61,0,0,1,.43-.17h1.25a.57.57,0,0,1,.42.17.63.63,0,0,1,.15.43v7.62a.63.63,0,0,1-.15.43.57.57,0,0,1-.42.17Z" transform="translate(-5.3 -15.35)"/><path class="b" d="M267.6,21.09l-3.09,0a.57.57,0,0,1-.43-.16.5.5,0,0,1-.17-.41V16a.54.54,0,0,1,.17-.43.58.58,0,0,1,.43-.17h1.09a.57.57,0,0,1,.44.17.61.61,0,0,1,.16.43v3h1.45Zm-.05,13a.49.49,0,0,1-.44-.06.47.47,0,0,1-.21-.41V32.38A.68.68,0,0,1,267,32a1,1,0,0,1,.43-.28l1-.39a9.61,9.61,0,0,0,1.85-1.07,4.14,4.14,0,0,0,1.33-1.72,7.15,7.15,0,0,0,.48-2.86,7.37,7.37,0,0,0-.4-2.69,2.6,2.6,0,0,0-1.35-1.43,6.55,6.55,0,0,0-2.59-.43H267a.59.59,0,0,1-.43-.16.61.61,0,0,1-.17-.43v-.94a.58.58,0,0,1,.6-.6h1.14a8.76,8.76,0,0,1,3.77.68,4,4,0,0,1,2,2.17,10.44,10.44,0,0,1,.61,3.91,9.26,9.26,0,0,1-.49,3.15,7,7,0,0,1-1.34,2.26,8.07,8.07,0,0,1-1.91,1.55,13.64,13.64,0,0,1-2.21,1Z" transform="translate(-5.3 -15.35)"/><path class="b" d="M276.7,27.78a.58.58,0,0,1-.6-.6V19.56a.58.58,0,0,1,.6-.6H278a.53.53,0,0,1,.41.17.59.59,0,0,1,.16.43v7.62a.59.59,0,0,1-.16.43.53.53,0,0,1-.41.17Z" transform="translate(-5.3 -15.35)"/><path class="b" d="M280.76,33.81a.58.58,0,0,1-.43-.17.56.56,0,0,1-.17-.43V19.56a.56.56,0,0,1,.17-.43.58.58,0,0,1,.43-.17h5.07a8.38,8.38,0,0,1,3.7.72,4.73,4.73,0,0,1,2.2,2.13,7.79,7.79,0,0,1,.73,3.55v7.85a.6.6,0,0,1-.17.43.61.61,0,0,1-.43.17h-1.17a.57.57,0,0,1-.44-.17.59.59,0,0,1-.16-.43V25.44a4.69,4.69,0,0,0-1-3.24A4.3,4.3,0,0,0,285.7,21h-3.18V33.21a.63.63,0,0,1-.15.43.56.56,0,0,1-.42.17Z" transform="translate(-5.3 -15.35)"/><path class="b" d="M298,19.77h.65a.81.81,0,0,1,.59.19.57.57,0,0,1,.17.48c-.14.73-.26,1.39-.35,2a17.55,17.55,0,0,0-.2,1.76c0,.58-.05,1.23-.05,2l.08,7.07a.58.58,0,0,1-.6.6l-3.69-.05a.59.59,0,0,1-.43-.16.57.57,0,0,1-.17-.44v-.83a.58.58,0,0,1,.17-.43.6.6,0,0,1,.43-.17l2,0V26.24c0-.71,0-1.36,0-2a16,16,0,0,1,.15-1.81c.09-.6.23-1.29.42-2a1,1,0,0,1,.25-.47A.71.71,0,0,1,298,19.77ZM295.65,21a.57.57,0,0,1-.59-.6v-.88a.59.59,0,0,1,.16-.43.61.61,0,0,1,.43-.17h5.65a8.38,8.38,0,0,1,3.7.72,4.73,4.73,0,0,1,2.2,2.13,7.65,7.65,0,0,1,.73,3.5v7.9a.6.6,0,0,1-.17.43.61.61,0,0,1-.43.17h-1.17a.57.57,0,0,1-.44-.17.59.59,0,0,1-.16-.43V25.44a4.69,4.69,0,0,0-1-3.24A4.3,4.3,0,0,0,301.17,21Z" transform="translate(-5.3 -15.35)"/><path class="b" d="M310,33.81a.48.48,0,0,1-.39-.18.54.54,0,0,1-.13-.45l2.21-12.74a.65.65,0,0,1,.23-.4.55.55,0,0,1,.44-.09l1,.05a.62.62,0,0,1,.42.22.54.54,0,0,1,.1.46l-2.08,12.5a.69.69,0,0,1-.22.45.64.64,0,0,1-.45.18Zm6.57-12.72h-6.31a.61.61,0,0,1-.45-.16.64.64,0,0,1-.15-.43v-.94a.63.63,0,0,1,.15-.43.61.61,0,0,1,.45-.17h6.6a5.42,5.42,0,0,1,2.87.76,5.16,5.16,0,0,1,2,2.17,7.45,7.45,0,0,1,.71,3.42v7.9a.63.63,0,0,1-.15.43.59.59,0,0,1-.44.17h-6.71a.58.58,0,0,1-.43-.17.6.6,0,0,1-.17-.43v-.88a.58.58,0,0,1,.6-.6h4.94V25.46a5.38,5.38,0,0,0-.46-2.31,3.56,3.56,0,0,0-1.24-1.52A3.12,3.12,0,0,0,316.58,21.09Z" transform="translate(-5.3 -15.35)"/></g><path class="b" d="M247.27,58.14a.56.56,0,0,1-.43-.17.58.58,0,0,1-.17-.43V43.89a.61.61,0,0,1,.17-.43.59.59,0,0,1,.43-.16h5a8.31,8.31,0,0,1,3.69.71,4.69,4.69,0,0,1,2.17,2.12,7.67,7.67,0,0,1,.71,3.51v7.9a.61.61,0,0,1-.15.43.56.56,0,0,1-.45.17Zm1.64-2.08h7.59V49.77a4.69,4.69,0,0,0-1-3.24,4.3,4.3,0,0,0-3.35-1.15h-3.2Z" transform="translate(-5.3 -15.35)"/><path class="b" d="M260.87,59.57a.52.52,0,0,1-.5,0,.45.45,0,0,1-.23-.4v-.88a1,1,0,0,1,.1-.45.6.6,0,0,1,.34-.28l5.49-1.8a6,6,0,0,0,2.29-1.27,4.4,4.4,0,0,0,1.13-1.82,7.76,7.76,0,0,0,.32-2.26V43.89a.61.61,0,0,1,.17-.43.59.59,0,0,1,.43-.16h1.17a.57.57,0,0,1,.44.16.6.6,0,0,1,.16.43V51.1a6.22,6.22,0,0,1-.68,2.84,6.76,6.76,0,0,1-1.94,2.34,8.69,8.69,0,0,1-3,1.52Zm3.4-2-3.66-13.18-.09-.32a.51.51,0,0,1,0-.2.51.51,0,0,1,.52-.52h1.27a.54.54,0,0,1,.6.39l3.61,13.23Z" transform="translate(-5.3 -15.35)"/><path class="b" d="M288.35,58.14a.56.56,0,0,1-.43-.17.58.58,0,0,1-.17-.43V49.77a4.69,4.69,0,0,0-1-3.24,4.3,4.3,0,0,0-3.35-1.15H280a.6.6,0,0,1-.43-.17.61.61,0,0,1-.17-.43v-.89a.61.61,0,0,1,.17-.43.59.59,0,0,1,.43-.16h3.54a8.54,8.54,0,0,1,3.7.7,4.67,4.67,0,0,1,2.2,2.12,7.71,7.71,0,0,1,.73,3.52v7.9A.58.58,0,0,1,290,58a.57.57,0,0,1-.43.17Z" transform="translate(-5.3 -15.35)"/><path class="b" d="M292.87,58.14a.57.57,0,0,1-.43-.17.58.58,0,0,1-.17-.43V43.89a.61.61,0,0,1,.17-.43.6.6,0,0,1,.43-.16h5.07a8.44,8.44,0,0,1,3.71.71,4.71,4.71,0,0,1,2.19,2.13,7.69,7.69,0,0,1,.73,3.55v7.85a.58.58,0,0,1-.6.6H302.8a.55.55,0,0,1-.44-.17.61.61,0,0,1-.15-.43V49.77a4.69,4.69,0,0,0-1-3.24,4.32,4.32,0,0,0-3.36-1.15h-3.17V57.54a.57.57,0,0,1-.16.43.5.5,0,0,1-.41.17Z" transform="translate(-5.3 -15.35)"/><path class="b" d="M306.65,58.14a.51.51,0,0,1-.39-.18.61.61,0,0,1-.13-.44l2.21-12.74a.65.65,0,0,1,.24-.4.51.51,0,0,1,.44-.1l1,.06a.55.55,0,0,1,.41.22.52.52,0,0,1,.11.45L308.5,57.52a.69.69,0,0,1-.22.44.65.65,0,0,1-.46.18Zm6.58-12.71h-6.32a.57.57,0,0,1-.44-.17.63.63,0,0,1-.16-.43v-.94a.65.65,0,0,1,.16-.43.57.57,0,0,1,.44-.16h6.61a5.51,5.51,0,0,1,2.87.75,5.22,5.22,0,0,1,2,2.17,7.61,7.61,0,0,1,.71,3.42v7.9a.57.57,0,0,1-.16.43.54.54,0,0,1-.44.17h-6.71a.54.54,0,0,1-.42-.17.54.54,0,0,1-.17-.43v-.88a.56.56,0,0,1,.17-.43.57.57,0,0,1,.42-.17h4.94V49.8a5.55,5.55,0,0,0-.45-2.32A3.57,3.57,0,0,0,315,46,3.16,3.16,0,0,0,313.23,45.43Z" transform="translate(-5.3 -15.35)"/></svg>