<svg xmlns="http://www.w3.org/2000/svg" width="115" height="115" viewBox="0 0 115 115"><defs><style>.a{fill:#3095aa;}</style></defs><title>dror_Asset 9</title><path class="a" d="M88.09,34.35a12.94,12.94,0,0,0-7.44-7.44,21.71,21.71,0,0,0-7.29-1.36c-4.14-.19-5.38-.23-15.86-.23s-11.72,0-15.86.23a22,22,0,0,0-7.29,1.36,12.94,12.94,0,0,0-7.44,7.44,21.71,21.71,0,0,0-1.36,7.29c-.19,4.14-.23,5.38-.23,15.86s.05,11.72.23,15.86a22,22,0,0,0,1.36,7.29,12.94,12.94,0,0,0,7.44,7.44,21.71,21.71,0,0,0,7.29,1.36c4.14.19,5.38.23,15.86.23s11.72-.05,15.86-.23a22,22,0,0,0,7.29-1.36,12.94,12.94,0,0,0,7.44-7.44,21.71,21.71,0,0,0,1.36-7.29c.19-4.14.23-5.38.23-15.86s-.05-11.72-.23-15.86A22,22,0,0,0,88.09,34.35ZM57.5,77.66A20.16,20.16,0,1,1,77.66,57.5,20.17,20.17,0,0,1,57.5,77.66Zm21-36.4a4.72,4.72,0,1,1,4.72-4.71A4.71,4.71,0,0,1,78.45,41.26Z"/><path class="a" d="M57.5,0A57.5,57.5,0,1,0,115,57.5,57.51,57.51,0,0,0,57.5,0Zm39,73.67a29,29,0,0,1-1.83,9.53A20.13,20.13,0,0,1,83.23,94.69a28.93,28.93,0,0,1-9.54,1.83c-4.18.19-5.52.24-16.18.24s-12-.05-16.18-.24a29,29,0,0,1-9.53-1.83A20.13,20.13,0,0,1,20.31,83.23a28.93,28.93,0,0,1-1.83-9.54c-.19-4.18-.24-5.52-.24-16.18s.05-12,.24-16.18a29,29,0,0,1,1.83-9.53,19.3,19.3,0,0,1,4.53-7,19,19,0,0,1,7-4.52,28.86,28.86,0,0,1,9.53-1.83c4.19-.19,5.52-.24,16.18-.24s12,.05,16.17.23a29,29,0,0,1,9.53,1.83,19.3,19.3,0,0,1,7,4.53,19.1,19.1,0,0,1,4.53,6.93,28.93,28.93,0,0,1,1.83,9.54c.19,4.18.24,5.52.24,16.18S96.71,69.48,96.52,73.67Z"/><circle class="a" cx="57.5" cy="57.5" r="13.09" transform="translate(-23.82 57.5) rotate(-45)"/></svg>