<svg xmlns="http://www.w3.org/2000/svg" width="100%" height="100%" viewBox="0 0 116.75 116.75">
<path fill="" d="M58.56,26.42a31.9,31.9,0,0,0-27,48.86l.76,1.2L29.07,88.25l12.07-3.16,1.17.69a31.85,31.85,0,0,0,16.23,4.44h0a31.9,31.9,0,0,0,0-63.8ZM77.31,72c-.79,2.23-4.62,4.27-6.47,4.55a13.07,13.07,0,0,1-6-.38,54.57,54.57,0,0,1-5.47-2C49.72,70,43.44,60.32,43,59.68s-3.91-5.19-3.91-9.91a10.79,10.79,0,0,1,3.35-8A3.57,3.57,0,0,1,45,40.57c.63,0,1.27,0,1.83,0s1.38-.23,2.16,1.64,2.71,6.64,3,7.12A1.79,1.79,0,0,1,52,51.05a6.36,6.36,0,0,1-1,1.6c-.48.56-1,1.25-1.43,1.69s-1,1-.42,2a29.26,29.26,0,0,0,5.33,6.64,26,26,0,0,0,7.71,4.76c1,.48,1.51.4,2.07-.24s2.4-2.8,3-3.76,1.28-.8,2.16-.48,5.59,2.64,6.55,3.12,1.6.72,1.83,1.12S78.11,69.77,77.31,72Z"/><path fill="" d="M58.38,0a58.38,58.38,0,1,0,58.37,58.38A58.38,58.38,0,0,0,58.38,0Zm.16,96.7h0A38.24,38.24,0,0,1,40.2,92L19.86,97.37,25.3,77.49A38.36,38.36,0,1,1,58.54,96.7Z"/>
</svg>