<svg xmlns="http://www.w3.org/2000/svg" width="100%" height="100%" viewBox="0 0 40 30"><g transform="translate(-12.5 -28.125)"><path d="M50.833,33.125H14.167c-.917,0-1.667-1.125-1.667-2.5h0c0-1.375.75-2.5,1.667-2.5H50.833c.917,0,1.667,1.125,1.667,2.5h0C52.5,32,51.75,33.125,50.833,33.125Z" fill="#40bbd4"/><path d="M50.833,51.875H14.167c-.917,0-1.667-1.125-1.667-2.5h0c0-1.375.75-2.5,1.667-2.5H50.833c.917,0,1.667,1.125,1.667,2.5h0C52.5,50.75,51.75,51.875,50.833,51.875Z" transform="translate(0 -6.25)" fill="#40bbd4"/><path d="M50.833,70.625H14.167c-.917,0-1.667-1.125-1.667-2.5h0c0-1.375.75-2.5,1.667-2.5H50.833c.917,0,1.667,1.125,1.667,2.5h0C52.5,69.5,51.75,70.625,50.833,70.625Z" transform="translate(0 -12.5)" fill="#40bbd4"/></g></svg>