 <svg xmlns="http://www.w3.org/2000/svg" width="17.126" height="13.951" viewBox="0 0 17.126 13.951">
          <path id="Path_4" data-name="Path 4" d="M390.688,939.521a.963.963,0,0,1,.469-1.245c2.355-1.149,3.983-2.662,3.983-4.8,0-2.084-1.905-2.56-3.87-2.976-.476-.12-.833-.953-.833-1.667a2.713,2.713,0,0,1,2.976-2.679c2.62,0,5.239,2.143,5.239,6.072,0,3.908-3.258,6.595-6.761,7.825a.964.964,0,0,1-1.2-.532Zm8.968-.005a.966.966,0,0,1,.465-1.244c2.317-1.148,3.989-2.661,3.989-4.794,0-2.084-1.964-2.56-3.928-2.976-.417-.12-.834-.953-.834-1.667a2.733,2.733,0,0,1,3.036-2.679c2.62,0,5.179,2.143,5.179,6.072,0,3.9-3.247,6.587-6.7,7.819a.966.966,0,0,1-1.209-.531Z" transform="translate(-390.437 -926.156)" fill="rgba(193,72,50,0.5)"/>
</svg>